<?xml version="1.0" encoding="UTF-8" standalone="no"?>
<!-- Created with Inkscape (http://www.inkscape.org/) -->

<svg
   width="264.58334mm"
   height="260.87894mm"
   viewBox="0 0 264.58334 260.87893"
   version="1.1"
   id="svg1"
   xml:space="preserve"
   inkscape:version="1.3.2 (091e20ef0f, 2023-11-25)"
   sodipodi:docname="logo.svg"
   inkscape:export-filename="logo_2.svg"
   inkscape:export-xdpi="96"
   inkscape:export-ydpi="96"
   xmlns:inkscape="http://www.inkscape.org/namespaces/inkscape"
   xmlns:sodipodi="http://sodipodi.sourceforge.net/DTD/sodipodi-0.dtd"
   xmlns="http://www.w3.org/2000/svg"
   xmlns:svg="http://www.w3.org/2000/svg"><sodipodi:namedview
     id="namedview1"
     pagecolor="#ffffff"
     bordercolor="#000000"
     borderopacity="0.25"
     inkscape:showpageshadow="2"
     inkscape:pageopacity="0.0"
     inkscape:pagecheckerboard="0"
     inkscape:deskcolor="#d1d1d1"
     inkscape:document-units="mm"
     inkscape:zoom="0.3157731"
     inkscape:cx="437.02267"
     inkscape:cy="528.86076"
     inkscape:window-width="1920"
     inkscape:window-height="1016"
     inkscape:window-x="0"
     inkscape:window-y="0"
     inkscape:window-maximized="1"
     inkscape:current-layer="layer1" /><defs
     id="defs1" /><g
     inkscape:label="Layer 1"
     inkscape:groupmode="layer"
     id="layer1"
     transform="translate(-34.931666,-72.040897)"><g
       id="g7"
       transform="matrix(1.6506971,0,0,1.6506971,-22.729934,-46.876804)"><g
         id="g1"
         transform="translate(8.4125621,0.73152701)"><path
           style="display:inline;fill:#d1e3f1"
           d="m 125.0175,226.26974 c 1.00285,-0.0707 1.99778,-0.33873 2.21095,-0.59559 0.57749,-0.69584 0.089,-1.55435 -0.97736,-1.71775 -0.54553,-0.0836 -0.23678,-0.16628 0.73541,-0.19694 l 1.6757,-0.0529 v -1.94028 -1.94028 h 3.88055 3.88056 v 1.94028 1.94028 h 1.5875 1.5875 v -1.94028 -1.94028 l 2.20486,-0.008 c 4.20834,-0.0148 6.2618,-1.73439 6.2618,-5.24374 0,-2.20744 0.23722,-2.51617 1.88983,-2.45957 l 1.46156,0.0501 -1.41111,0.21452 c -0.81112,0.12331 -1.39611,0.40202 -1.37583,0.65549 0.0194,0.24254 0.0591,0.90653 0.0882,1.47554 0.0329,0.64355 0.28625,1.10845 0.67028,1.23007 0.54669,0.17312 0.60364,0.61841 0.49748,3.88965 l -0.11989,3.69414 0.90654,0.22753 c 0.77568,0.19468 0.85258,0.32833 0.53273,0.92596 -0.28994,0.54176 -0.23651,0.85014 0.23817,1.37465 0.60225,0.66548 0.38294,0.67518 -13.81841,0.61095 -7.9367,-0.0359 -13.60986,-0.12311 -12.60701,-0.19382 z m 0.19801,-9.86968 c -0.0769,-1.40935 -0.15265,-1.50498 -1.47329,-1.86059 -1.93106,-0.51998 -2.88628,-1.79262 -2.46031,-3.27788 0.65537,-2.28514 0.57713,-2.37166 -2.14472,-2.37166 h -2.46944 v -7.57566 -7.57566 l 1.02718,-0.53118 c 0.56496,-0.29215 1.35871,-0.95263 1.76389,-1.46774 0.71033,-0.90304 0.73652,-1.31691 0.73151,-11.56052 -0.004,-7.72979 -0.12392,-10.85495 -0.44097,-11.47189 -0.70982,-1.38118 -2.25421,-2.31103 -3.8384,-2.31103 -1.16973,0 -1.61935,0.20959 -2.45431,1.14408 l -1.02223,1.14407 v 11.58143 c 0,11.13339 0.0273,11.60612 0.70555,12.21994 0.6655,0.60226 0.70556,1.08654 0.70556,8.52911 v 7.89059 l -29.72153,-0.096 -29.721528,-0.096 -2.034962,-1.03111 c -2.645685,-1.34056 -5.301767,-4.18152 -6.701514,-7.16797 l -1.1175,-2.38426 0.109907,-48.50694 0.109907,-48.50694 0.886558,-2.108666 c 2.064902,-4.91134 5.061937,-7.666962 9.394708,-8.637956 1.011291,-0.226635 14.787505,-0.361685 37.865705,-0.371203 l 36.276079,-0.01496 0.0971,5.478198 0.0972,5.478197 h 1.40215 1.40215 v -7.055554 -7.055555 h -1.19357 c -1.27662,0 -1.61377,-0.531026 -1.62383,-2.557638 -0.005,-0.915323 0.0849,-0.970139 1.58268,-0.970139 h 1.5875 v -2.802893 -2.802893 l -1.67569,-0.126556 c -1.64332,-0.12411 -1.65354,-0.132153 -0.52917,-0.416204 0.96049,-0.24265 1.14653,-0.454218 1.14653,-1.303884 0,-0.901868 -0.12703,-1.018132 -1.14653,-1.049401 -0.63059,-0.01934 -1.5434,-0.162267 -2.02847,-0.317613 -0.48507,-0.155346 4.64398,-0.298272 11.3979,-0.317613 7.82862,-0.02242 12.20341,0.08852 12.06896,0.306058 -0.11599,0.187672 -0.68098,0.247203 -1.25554,0.132291 -1.18494,-0.236987 -1.17665,-0.251873 -0.66969,1.20239 0.20623,0.591599 0.72217,1.194987 1.14653,1.340864 0.68627,0.235909 0.64481,0.281285 -0.37497,0.410471 -1.07476,0.13615 -1.14653,0.232174 -1.14653,1.534001 v 1.38876 h -6.35 -6.35 v 10.054166 10.054162 h 1.5875 1.5875 v -8.466662 -8.466667 l 6.26181,0.04149 c 4.56051,0.03022 5.79095,0.120351 4.52876,0.331737 -1.76846,0.296173 -3.65878,1.657079 -2.76487,1.99052 0.70662,0.263581 0.5095,0.752444 -0.35278,0.874908 -0.7596,0.10788 -0.79806,0.275879 -0.89388,3.905091 l -0.10013,3.792361 h -1.75195 -1.75196 v 1.5875 1.5875 h 6.29452 c 5.90852,0 6.38986,0.05033 7.8493,0.820833 0.85514,0.451459 2.03105,1.496979 2.61313,2.323369 l 1.05833,1.50252 0.10559,44.68428 c 0.0581,24.57635 0.009,45.50017 -0.10871,46.49738 -0.25437,2.1522 -1.49771,4.22182 -3.26404,5.43324 -1.21414,0.83271 -1.5283,0.87214 -7.82361,0.98213 l -6.55868,0.11459 -0.0375,-1.43012 c -0.0447,-1.70529 -0.86957,-3.08888 -2.17546,-3.64905 -0.52331,-0.22448 -0.99395,-0.43171 -1.04586,-0.4605 -0.0519,-0.0288 0.62278,-0.76951 1.49931,-1.64604 l 1.59368,-1.59369 V 180.19724 169.0506 l -1.09487,-1.247 c -0.94848,-1.08026 -1.30698,-1.247 -2.68112,-1.247 -1.33358,0 -1.77727,0.19105 -2.78567,1.19945 l -1.19945,1.19944 v 11.37071 11.3707 l 1.32238,1.24716 c 0.76604,0.72248 1.14453,1.30644 0.89965,1.38807 -0.94388,0.31463 -2.33531,1.68999 -2.77545,2.74339 -0.57414,1.37411 -0.34699,2.44274 0.8616,4.0533 l 0.92655,1.23473 -0.0955,7.14375 -0.0955,7.14374 h -3.87325 -3.87325 v -6.70072 -6.70073 l 1.5875,-1.6103 c 1.43305,-1.45363 1.5875,-1.77346 1.5875,-3.28744 0,-1.36951 -0.17795,-1.8473 -0.97014,-2.60485 -0.53358,-0.51025 -1.33676,-1.06287 -1.78484,-1.22807 -0.79422,-0.29279 -0.78114,-0.32212 0.52021,-1.16675 2.25457,-1.46332 2.24963,-1.43185 2.14909,-13.68396 l -0.0907,-11.05366 -1.1521,-1.02898 c -0.91766,-0.8196 -1.48116,-1.02898 -2.7693,-1.02898 -1.36881,0 -1.80145,0.18424 -2.81666,1.19945 l -1.19944,1.19944 v 10.95479 c 0,7.62207 0.12575,11.23079 0.41335,11.862 0.22734,0.49896 0.96231,1.24648 1.63326,1.66115 l 1.21991,0.75395 -1.25847,0.64564 c -0.69216,0.35509 -1.50651,0.99974 -1.80966,1.43255 -1.05336,1.50389 -0.50387,4.16081 1.11532,5.39279 0.36497,0.2777 0.44229,2.04897 0.36186,8.29028 -0.0563,4.36542 -0.13877,7.26856 -0.18337,6.45142 z m -20.16273,-14.41674 c 0.77936,-0.82871 0.86594,-1.25476 0.97569,-4.8016 l 0.12045,-3.89219 1.20247,-1.05579 1.20247,-1.05578 v -11.20477 c 0,-10.75365 -0.029,-11.2417 -0.7216,-12.12214 -1.55019,-1.97075 -4.81214,-1.80984 -6.19833,0.30576 -0.55518,0.84731 -0.64188,2.18538 -0.77793,12.00611 l -0.15312,11.05253 1.10327,1.10327 c 1.03205,1.03204 1.10296,1.26662 1.09845,3.63377 -0.009,4.51219 0.77158,4.118 -8.150217,4.118 h -7.719966 v -3.55097 c 0,-4.96238 0.04032,-4.9157 -4.245746,-4.9157 h -3.515365 v -9.37951 -9.37951 l 1.640773,-1.48549 c 1.510581,-1.36761 1.653793,-1.64249 1.804859,-3.46414 0.198578,-2.39459 -0.73664,-4.35991 -2.73308,-5.74344 -2.393704,-1.65884 -6.14707,-0.98164 -7.996208,1.4427 -2.380924,3.12155 -0.804703,7.77943 3.140081,9.27924 l 0.968575,0.36825 v 10.54181 10.54181 l 2.168416,0.22664 c 1.192628,0.12465 3.018253,0.22664 4.056944,0.22664 h 1.888529 v 2.64584 2.64583 l -13.140973,-0.008 c -12.037837,-0.007 -13.25943,-0.0626 -14.552083,-0.66107 -1.642442,-0.76042 -3.148275,-2.26378 -3.681724,-3.67567 -0.258036,-0.68295 -0.375221,-15.20213 -0.375221,-46.4898 0,-50.198396 -0.151136,-46.83328 2.213119,-49.276064 1.994307,-2.060547 1.600075,-2.037608 32.800076,-1.908572 l 28.486801,0.117814 V 109.2558 120.34247 H 90.385806 64.809417 v -9.70139 -9.70139 l -1.146528,0.005 c -2.114719,0.01 -2.047312,-0.3818 -1.945547,11.30757 l 0.09346,10.73564 27.024256,0.0904 27.024262,0.0904 -0.0368,7.84713 -0.0367,7.84713 16.8215,0.0916 16.82151,0.0916 0.91388,-0.79715 0.91387,-0.79716 0.003,-16.53058 c 0.003,-17.78169 0.0814,-17.02729 -1.8844,-18.22607 -0.89617,-0.54649 -2.28615,-0.58359 -15.78681,-0.42134 l -14.80412,0.17791 v -3.724772 -3.72477 l -31.132645,0.07199 -31.132639,0.07199 -1.450822,0.76234 c -1.971771,1.036076 -4.536595,3.973447 -5.219491,5.977632 -0.502204,1.47389 -0.561632,6.45021 -0.561632,47.02976 0,50.95578 -0.16467,47.72065 2.581255,50.71175 0.811629,0.8841 2.26944,1.97872 3.239579,2.4325 l 1.763888,0.82504 23.662812,0.003 23.662815,0.003 z m 13.73164,-96.45727 c 0,-0.19403 0.16812,-0.35278 0.37359,-0.35278 0.20548,0 0.27549,0.15875 0.15557,0.35278 -0.11991,0.19403 -0.28803,0.35278 -0.37359,0.35278 -0.0856,0 -0.15557,-0.15875 -0.15557,-0.35278 z m -51.288897,88.46454 c 1.396621,-1.22625 2.252782,-2.87176 2.252782,-4.32977 0,-1.44921 -1.280417,-3.56312 -2.683446,-4.43024 -2.632558,-1.62701 -6.13658,-0.62495 -7.558076,2.16141 -0.884785,1.73432 -0.876903,2.90691 0.03216,4.78479 0.976195,2.01655 2.486935,2.94135 4.817223,2.94888 1.575266,0.005 2.026667,-0.15812 3.139354,-1.13507 z m 85.508337,-0.23152 c 1.49828,-1.07899 1.61648,-2.26732 1.41928,-14.26915 l -0.18456,-11.23196 -0.98981,-0.85068 c -1.78482,-1.53394 -5.28121,-0.87851 -6.21207,1.1645 -0.24964,0.54791 -0.38238,4.73139 -0.38152,12.02434 0.001,10.48225 0.0447,11.25519 0.69212,12.31705 1.133,1.8582 3.71478,2.24428 5.65656,0.8459 z m -57.996665,-0.88525 1.199444,-1.19944 0.03008,-9.47208 c 0.03805,-11.98492 -9.99e-4,-13.13927 -0.469915,-13.89012 -0.965553,-1.5461 -3.920202,-2.25573 -5.66877,-1.36151 -1.996096,1.02081 -1.988934,0.97441 -1.997436,12.94081 -0.0086,12.05597 0.06742,12.56735 2.025063,13.62955 0.531137,0.2882 1.576892,0.53035 2.323899,0.53811 1.084566,0.0113 1.59984,-0.22752 2.557639,-1.18532 z M 67.216033,181.30309 c 1.304201,-0.80605 2.511883,-3.01398 2.524525,-4.61546 0.01907,-2.41566 -2.369065,-5.29702 -4.762428,-5.74602 -2.614612,-0.4905 -5.595266,1.45997 -6.521939,4.26782 -0.499622,1.51387 -0.254019,2.70648 0.929975,4.51584 1.721028,2.63004 5.043899,3.29964 7.829867,1.57782 z m 28.108662,-16.90496 c 1.951516,-0.54025 4.564157,-3.20316 5.101855,-5.20001 0.26058,-0.96771 0.37227,-3.59943 0.30176,-7.10982 l -0.11195,-5.57341 -1.106903,-1.53262 c -0.669874,-0.9275 -1.853793,-1.92904 -2.998611,-2.53669 -1.631631,-0.86604 -2.170605,-0.97976 -3.920317,-0.82719 -2.554878,0.22278 -4.884764,1.54181 -6.181373,3.4995 -0.940508,1.42003 -0.964891,1.59099 -1.079646,7.56989 -0.109439,5.70194 -0.06509,6.2251 0.653474,7.70947 0.89754,1.85407 2.529389,3.21246 4.657453,3.87698 1.892743,0.59103 2.900568,0.61769 4.684258,0.1239 z m 35.630555,-2.35302 c 3.061,-2.09545 3.82185,-6.1627 1.65951,-8.8711 -3.22328,-4.03724 -9.45066,-2.99715 -10.99534,1.83644 -1.27324,3.98421 2.51113,8.74532 6.51361,8.19476 0.77611,-0.10676 2.04611,-0.6288 2.82222,-1.1601 z m -16.38537,-1.31906 c 3.43423,-1.77591 4.15815,-6.71827 1.43797,-9.8174 -1.60163,-1.82476 -4.75895,-2.4791 -6.85415,-1.4205 -2.56912,1.29805 -3.77484,3.0933 -3.77484,5.62054 0,2.85452 1.78742,5.31727 4.47498,6.16574 1.23187,0.3889 3.38847,0.13814 4.71604,-0.54838 z m 41.53133,-5.54653 0.0987,-4.49792 h -10.24109 c -11.41797,0 -10.54781,-0.21061 -10.02061,2.42535 0.17267,0.86338 0.40216,1.10243 1.05833,1.10243 0.71922,0 0.83785,0.17145 0.83785,1.21095 0,0.90112 -0.18052,1.26825 -0.70556,1.43489 -0.54862,0.17412 -0.70555,0.53376 -0.70555,1.61685 v 1.39292 l 9.78958,-0.0938 9.78958,-0.0938 z m -88.788948,2.53073 c 2.239072,-1.12486 4.263166,-3.98903 5.034918,-7.12461 0.217287,-0.88282 0.316583,-0.93729 1.021174,-0.56021 0.429265,0.22974 1.670055,0.42979 2.75731,0.44456 1.552726,0.0211 2.249752,-0.16015 3.248991,-0.84484 3.218785,-2.20555 3.651586,-6.5439 0.902308,-9.04464 -2.179764,-1.98272 -4.936407,-2.42098 -7.381551,-1.17356 -2.343708,1.19567 -2.875276,2.41821 -2.678139,6.15938 0.150318,2.85263 0.08175,3.33618 -0.675309,4.7625 l -0.842614,1.5875 0.0576,-4.85953 c 0.06296,-5.31202 -0.08878,-5.80042 -2.319503,-7.4659 -1.547746,-1.15556 -4.934467,-1.02465 -6.884957,0.26612 -2.311546,1.52971 -2.841605,3.05577 -2.840796,8.17875 8.59e-4,5.44104 0.29453,6.65032 2.038545,8.39433 2.305576,2.30558 5.554067,2.79127 8.562026,1.28015 z m 41.028478,-21.4331 c 0.0997,-0.16133 0.29068,-1.36105 0.42438,-2.66603 l 0.24309,-2.37269 -1.90287,0.1084 -1.90287,0.10839 0.12412,2.29305 c 0.0683,1.26118 0.19669,2.41212 0.2854,2.55764 0.21982,0.3606 2.50298,0.33654 2.72875,-0.0288 z m -34.783955,-2.61707 0.104313,-2.38125 h -1.582799 c -0.870539,0 -1.670815,0.14241 -1.778392,0.31648 -0.107577,0.17406 -0.0935,1.29329 0.03129,2.48718 l 0.226884,2.1707 1.447196,-0.10593 1.447196,-0.10593 z m -8.663923,-0.0635 c 0.142909,-1.15061 0.222284,-2.12794 0.176389,-2.17186 -0.04589,-0.0439 -0.837508,-0.19209 -1.75914,-0.32929 l -1.675695,-0.24944 v 2.52978 2.52979 l 1.499306,-0.10848 1.499306,-0.10848 z m 16.849888,-0.0247 v -2.29305 h -1.763889 c -1.689998,0 -1.763726,0.0406 -1.760006,0.97014 0.0021,0.53357 0.102281,1.56545 0.222547,2.29305 0.213799,1.29348 0.252959,1.32292 1.760006,1.32292 h 1.541342 z m 9.172222,-0.0184 v -2.31149 l -1.852083,0.10663 -1.852083,0.10663 -0.105028,2.20486 -0.105028,2.20486 h 1.957111 1.957111 z m 8.466667,1.12086 c 0,-0.65484 0.101028,-1.69576 0.224507,-2.31316 l 0.224507,-1.12253 -1.900201,0.1083 -1.900202,0.1083 -0.109295,1.71906 c -0.155697,2.44892 0.0116,2.69066 1.862112,2.69066 1.580477,0 1.598572,-0.0135 1.598572,-1.19063 z m -29.986111,-5.51215 v -3.52778 h -1.5875 -1.5875 v 3.52778 3.52778 h 1.5875 1.5875 z m 7.989705,1.32292 c -0.122354,-1.01865 -0.223841,-2.52677 -0.225528,-3.35139 l -0.0031,-1.49931 h -1.536841 -1.536842 l -0.230661,2.48183 c -0.126864,1.365 -0.13245,2.87313 -0.01242,3.35139 0.195788,0.78008 0.400879,0.86956 1.99303,0.86956 h 1.774784 z m 8.238073,-1.49931 v -3.35139 h -1.5875 -1.5875 v 3.35139 3.35139 h 1.5875 1.5875 z m 9.392708,2.24896 c -0.121267,-0.60634 -0.220486,-2.12316 -0.220486,-3.37072 v -2.26828 l -1.675694,0.10752 -1.675695,0.10752 -0.101433,3.2632 -0.101432,3.26319 h 1.997613 1.997613 z m 8.951736,-2.24896 v -3.35139 h -1.5875 -1.5875 v 3.35139 3.35139 h 1.5875 1.5875 z m 8.60531,2.79337 c 0.11778,-0.30691 0.21413,-1.81503 0.21413,-3.35139 v -2.79337 h -1.76388 -1.76389 v 3.35139 3.35139 h 1.54975 c 1.08775,0 1.6136,-0.16636 1.76389,-0.55802 z m 0.56691,-22.54892 v -7.9375 H 90.943825 c -12.207881,0 -22.447256,0.0964 -22.754167,0.21413 -0.485328,0.18624 -0.558019,1.22023 -0.558019,7.9375 v 7.72337 h 22.754167 22.754164 z m -5.5514,-4.66287 c 0.53625,-0.0811 1.33,-0.0789 1.76389,0.005 0.4339,0.0837 -0.005,0.15008 -0.97499,0.14743 -0.97014,-0.003 -1.32514,-0.0712 -0.7889,-0.15225 z m 17.00534,-6.963329 c 0.13667,-1.640728 0.14607,-3.148853 0.0209,-3.351388 -0.12517,-0.202536 -0.85322,-0.368247 -1.61788,-0.368247 h -1.39029 v 3.351389 3.351385 h 1.36939 1.36938 z m 15.00423,112.079659 -1.7e-4,-6.96736 8.04365,0.12076 c 5.20588,0.0782 8.56108,-0.0186 9.51033,-0.27419 2.37262,-0.63888 4.33969,-2.39599 5.72969,-5.11812 l 1.23472,-2.41805 0.096,-45.18586 c 0.0672,-31.62583 -0.0195,-45.74234 -0.28893,-47.0402 -0.48624,-2.34218 -2.19765,-4.845034 -4.30684,-6.298551 -1.75345,-1.208362 -4.68495,-1.912167 -7.96457,-1.912167 h -1.82319 v -2.264977 -2.264976 l 2.20486,-0.235579 c 2.8352,-0.302929 6.89765,0.264734 8.92782,1.24752 2.55904,1.238812 5.28348,3.979436 6.5859,6.625023 l 1.15503,2.346207 v 49.04353 49.04352 l -0.98611,2.00809 c -1.16076,2.36373 -3.69744,5.29525 -5.64698,6.52594 -2.78334,1.75705 -3.9396,1.99223 -10.82941,2.20271 -6.26488,0.19138 -6.52272,0.22764 -6.43491,0.90493 0.0503,0.38805 -0.006,2.09462 -0.12565,3.79236 l -0.21712,3.0868 h -2.43199 -2.43199 z"
           id="path7"
           sodipodi:nodetypes="csscccccccccccccsscssssscssssccsssscccsscssscssscccsscccssscccccccscscccsssssssssssscccccccccssssscccccssscccsscsssscccssscccsssscccccccsssssscssscssscssssscscccscsscscscsscccssssscccssccccsssssccccccccsccccccccccsscccccsssssccccsssssssssscsssscsscssccssssssscssssssssscsssssssssssssssssssccssssssccccssssssssscssssssscsccccsccccsssccccssscccccsccscsscccccccccccsscccsssccccccccccccccssscccccccccccsscccccccscccccccccsscccccssccscscccccccccssscccccscccsscsssscccssscccssssccccc" /><path
           style="display:inline;fill:#fdf336"
           d="m 70.806639,109.40959 v -4.58909 h 19.589707 19.589704 l -0.0987,4.49791 -0.0987,4.49792 -19.490969,0.0912 -19.490972,0.0912 z"
           id="path6" /><path
           style="display:inline;fill:#96b99e"
           d="m 183.34275,227.80674 c 0,-0.0733 0.27781,-0.35107 0.61736,-0.61736 0.55953,-0.43881 0.57201,-0.42633 0.1332,0.13319 -0.46086,0.58764 -0.75056,0.77452 -0.75056,0.48417 z M 33.064887,226.0796 c -2.946548,-1.55818 -3.512011,-3.11231 -3.524833,-9.68772 l -0.0084,-4.31611 1.796292,1.35956 c 2.916973,2.20777 5.631961,2.69915 8.257875,1.49457 2.716061,-1.24594 4.150418,-3.24282 4.864872,-6.77278 l 0.431927,-2.13405 2.241907,1.79925 c 2.632392,2.11263 4.215763,2.96853 7.002618,3.78529 1.845693,0.54094 5.110226,0.60206 34.396939,0.64403 l 32.357716,0.0464 0.73412,0.93329 c 0.40377,0.51331 1.338,1.0959 2.07607,1.29464 1.33188,0.35864 1.34365,0.37762 1.56859,2.5297 0.12465,1.19259 0.22664,3.25631 0.22664,4.58604 0,2.31487 0.0359,2.4177 0.8442,2.4177 0.97311,0 1.47179,0.92225 0.88257,1.63221 -0.22863,0.27549 -1.18229,0.51321 -2.21094,0.55112 -1.23853,0.0456 -0.80778,0.13377 1.36611,0.2795 1.74625,0.11707 -18.18693,0.24828 -44.295964,0.2916 l -47.47096,0.0788 z m 24.165917,-4.22508 c 0.117958,-0.63059 0.164839,-2.01966 0.10418,-3.08681 l -0.11029,-1.94028 -1.499305,-0.10847 -1.499306,-0.10848 v 3.19528 3.19528 h 1.395126 c 1.294809,0 1.410547,-0.0824 1.609595,-1.14652 z m 88.676266,4.75976 c 5.99101,-0.10016 6.11844,-0.11791 5.52813,-0.7702 -0.47194,-0.52149 -0.52113,-0.82298 -0.22464,-1.37696 0.30775,-0.57504 0.263,-0.73977 -0.23647,-0.87037 -0.33883,-0.0886 -0.11367,-0.1795 0.50037,-0.20201 l 1.11643,-0.0409 0.25052,-2.67346 c 0.32,-3.41482 -0.0966,-4.52771 -1.61145,-4.30537 -0.57658,0.0846 -1.04832,0.0333 -1.04832,-0.11405 0,-0.14735 -0.30076,-0.36336 -0.66836,-0.48003 -0.41314,-0.13113 -0.73587,-0.64536 -0.84516,-1.34669 -0.0972,-0.62401 -0.28753,-1.47754 -0.42286,-1.89673 -0.24411,-0.75612 -0.20165,-0.76312 5.35229,-0.88195 5.52791,-0.11827 5.62847,-0.13462 7.99302,-1.29955 1.32867,-0.65459 3.40538,-2.12524 4.6651,-3.30364 l 2.27041,-2.12387 v 1.08142 c 0,5.36729 3.57833,9.42044 8.29028,9.39036 2.42673,-0.0155 3.92989,-0.66769 5.90903,-2.56385 l 1.32292,-1.26744 -0.008,4.7459 c -0.005,2.61024 -0.15012,5.35655 -0.32332,6.10291 -0.39235,1.69077 -1.52827,2.95375 -3.42327,3.80617 -1.37725,0.61952 -2.59334,0.65284 -20.99028,0.57523 -10.74058,-0.0453 -16.76876,-0.12852 -13.39595,-0.1849 z m 5.3329,-14.41001 c 0,-0.0766 -0.635,-0.13934 -1.41111,-0.13934 -0.77611,0 -1.41111,0.12326 -1.41111,0.27391 0,0.15065 0.635,0.21335 1.41111,0.13933 0.77611,-0.074 1.41111,-0.19727 1.41111,-0.2739 z m -14.81666,9.57483 v -1.92751 l -3.43959,-0.11533 -3.43958,-0.11533 3.61597,-0.0738 3.61597,-0.0738 v 2.11666 c 0,1.16417 -0.0794,2.11667 -0.17638,2.11667 -0.097,0 -0.17639,-0.86738 -0.17639,-1.9275 z m -109.903806,-18.71 c -7.2e-5,-9.1193 0.04553,-12.90055 0.101333,-8.40276 0.0558,4.49778 0.05586,11.95903 1.3e-4,16.58055 -0.05573,4.62152 -0.101392,0.94152 -0.101463,-8.17779 z m 119.781576,15.56542 c 0,-0.0733 0.27782,-0.35107 0.61737,-0.61736 0.55952,-0.43881 0.572,-0.42634 0.13319,0.13319 -0.46086,0.58764 -0.75056,0.77452 -0.75056,0.48417 z m -16.30664,-1.88946 c 0.82974,-0.0745 2.09974,-0.0735 2.82222,0.002 0.72247,0.0758 0.0436,0.13678 -1.50863,0.1355 -1.55222,-0.001 -2.14334,-0.0633 -1.31359,-0.13783 z m 9.40852,-0.19261 c -0.0953,-0.24825 -0.12634,-3.54231 -0.0691,-7.32014 l 0.10417,-6.86876 0.0801,7.12614 0.0801,7.12614 2.02847,0.12729 2.02847,0.12729 -2.03954,0.0667 c -1.38279,0.0452 -2.09532,-0.0786 -2.21275,-0.38467 z m -2.83085,-6.95696 c 0,-3.97757 0.0514,-5.60476 0.11433,-3.61597 0.0629,1.98878 0.0629,5.24316 0,7.23194 -0.0629,1.98879 -0.11433,0.3616 -0.11433,-3.61597 z m 11.16794,6.14421 c 0.0169,-0.41096 0.10052,-0.49456 0.21313,-0.21313 0.10191,0.25466 0.0894,0.55893 -0.0279,0.67615 -0.11722,0.11723 -0.2006,-0.0911 -0.18528,-0.46302 z m -3.11389,-1.02893 c 0.004,-0.77611 0.0762,-1.05208 0.16054,-0.61325 0.0844,0.43882 0.0812,1.07382 -0.007,1.41111 -0.0883,0.33729 -0.15734,-0.0217 -0.15342,-0.79786 z m -18.99253,-6.17361 c 0,-3.58952 0.0524,-5.05795 0.11641,-3.2632 0.064,1.79476 0.064,4.73163 0,6.52639 -0.064,1.79476 -0.11641,0.32632 -0.11641,-3.26319 z m -4.35192,1.5581 c 0.0169,-0.41097 0.10052,-0.49456 0.21314,-0.21314 0.10191,0.25466 0.0894,0.55893 -0.0279,0.67616 -0.11723,0.11722 -0.20061,-0.0911 -0.18529,-0.46302 z m -51.245601,-1.11675 c 3.747806,-0.0572 9.780306,-0.0571 13.405556,1.9e-4 3.62525,0.0573 0.558863,0.10408 -6.814193,0.10397 -7.373055,-1e-4 -10.339169,-0.047 -6.591363,-0.10416 z m -21.481171,-3.88094 -0.855244,-0.97014 0.970139,0.85525 c 0.906741,0.79935 1.131919,1.08503 0.855244,1.08503 -0.06319,0 -0.499755,-0.43656 -0.970139,-0.97014 z m 115.032262,0.50698 c 0,-0.0607 0.51593,-0.57665 1.14652,-1.14653 l 1.14653,-1.03614 -1.03614,1.14653 c -0.96583,1.06872 -1.25691,1.30868 -1.25691,1.03614 z m 19.16796,-2.49488 c -1.50902,-2.05313 -3.23954,-2.86301 -6.11519,-2.86192 -1.73219,6.6e-4 -2.61663,0.19189 -3.61597,0.78185 l -1.32292,0.78098 v -51.61124 c 0,-28.38619 0.0826,-51.693856 0.18357,-51.794819 0.10097,-0.100963 0.92162,0.190078 1.82368,0.646759 2.94172,1.48929 5.66414,0.902953 8.48789,-1.828066 l 1.85209,-1.79126 v 54.612326 c 0,30.03678 -0.0397,54.60613 -0.0882,54.59856 -0.0485,-0.008 -0.59073,-0.69749 -1.20495,-1.53317 z m -153.013905,0.9334 c -0.261954,-0.26195 -0.280417,-106.388698 -0.01863,-107.070911 0.142262,-0.370729 0.507688,-0.199024 1.432317,0.673013 2.499944,2.357748 6.815744,2.793188 9.51682,0.96019 l 1.306959,-0.886926 -0.222438,1.346169 c -0.122341,0.740393 -0.224185,3.846485 -0.226321,6.902415 l -0.0039,5.55625 H 38.88025 36.234416 v 1.583 1.58301 l 2.645834,-0.22366 2.645833,-0.22365 v 43.75817 43.75818 l -1.309314,-0.66753 c -1.690388,-0.8618 -4.745566,-0.86623 -6.631212,-0.01 -0.777776,0.35334 -1.913761,1.21147 -2.524412,1.90696 -0.61065,0.6955 -1.204601,1.17021 -1.31989,1.05492 z m 98.920945,-1.12954 c 0,-0.18257 0.15693,-0.42894 0.34873,-0.54749 0.19998,-0.12359 0.25912,0.018 0.13865,0.33196 -0.23453,0.61116 -0.48738,0.72298 -0.48738,0.21553 z m 13.66227,-0.27543 c 0.62626,-0.0779 1.73751,-0.0792 2.46944,-0.003 0.73193,0.0764 0.21954,0.14013 -1.13866,0.14169 -1.35819,0.002 -1.95705,-0.0609 -1.33078,-0.13885 z m 13.43547,0.0136 c 0.25466,-0.1019 0.55893,-0.0894 0.67616,0.0279 0.11722,0.11722 -0.0911,0.2006 -0.46302,0.18528 -0.41097,-0.0169 -0.49456,-0.10052 -0.21314,-0.21314 z m -19.89932,-1.25831 -0.67204,-0.79375 0.79375,0.67203 c 0.43657,0.36962 0.79375,0.72681 0.79375,0.79375 0,0.28232 -0.28391,0.0739 -0.91546,-0.67203 z m -5.78731,0.30778 c 0,-0.0733 0.27781,-0.35107 0.61736,-0.61737 0.55952,-0.43881 0.572,-0.42633 0.13319,0.1332 -0.46086,0.58764 -0.75055,0.77451 -0.75055,0.48417 z m 30.69166,-1.45431 c 0.4557,-0.48507 0.90792,-0.88195 1.00494,-0.88195 0.097,0 -0.19646,0.39688 -0.65216,0.88195 -0.4557,0.48507 -0.90792,0.88194 -1.00493,0.88194 -0.097,0 0.19645,-0.39687 0.65215,-0.88194 z m -54.90282,-3.35139 c 0,-2.03729 0.0583,-2.87073 0.12957,-1.85208 0.0713,1.01864 0.0713,2.68552 0,3.70416 -0.0713,1.01865 -0.12957,0.18521 -0.12957,-1.85208 z m -21.594254,2.46944 c 0,-0.48506 0.08007,-0.6835 0.177936,-0.44097 0.09786,0.24254 0.09786,0.63941 0,0.88195 -0.09786,0.24253 -0.177936,0.0441 -0.177936,-0.44098 z m 18.316594,0.147 c 0.0169,-0.41097 0.10052,-0.49456 0.21314,-0.21314 0.1019,0.25466 0.0894,0.55893 -0.0279,0.67616 -0.11723,0.11722 -0.20061,-0.0911 -0.18529,-0.46302 z m 40.56945,-0.70556 c 0.0169,-0.41097 0.10052,-0.49456 0.21313,-0.21314 0.10191,0.25466 0.0894,0.55894 -0.0279,0.67616 -0.11722,0.11723 -0.2006,-0.0911 -0.18528,-0.46302 z m -88.954557,-0.76435 -0.855244,-0.97014 0.970138,0.85524 c 0.906741,0.79936 1.131919,1.08504 0.855245,1.08504 -0.06319,0 -0.499755,-0.43657 -0.970139,-0.97014 z m 87.658457,-2.29306 -0.67203,-0.79375 0.79375,0.67204 c 0.74593,0.63155 0.95435,0.91546 0.67203,0.91546 -0.0669,0 -0.42413,-0.35718 -0.79375,-0.79375 z m -61.605071,-1.2289 c 0.829747,-0.0745 2.099747,-0.0735 2.822223,0.002 0.722475,0.0758 0.04359,0.13678 -1.508631,0.1355 -1.552222,-0.001 -2.143338,-0.0633 -1.313592,-0.13783 z m 70.215501,0.0178 c 0.25466,-0.10191 0.55893,-0.0894 0.67616,0.0279 0.11722,0.11722 -0.0911,0.2006 -0.46302,0.18528 -0.41097,-0.0169 -0.49456,-0.10052 -0.21314,-0.21313 z m -74.249029,-2.75763 c 0.0013,-1.55222 0.0633,-2.14334 0.137826,-1.31359 0.07452,0.82975 0.07347,2.09975 -0.0023,2.82222 -0.0758,0.72248 -0.136777,0.0436 -0.135496,-1.50863 z m 71.447959,1.6757 c -0.43881,-0.55953 -0.42634,-0.57201 0.13319,-0.1332 0.58764,0.46086 0.77452,0.75056 0.48417,0.75056 -0.0733,0 -0.35107,-0.27781 -0.61736,-0.61736 z m 5.51305,-0.0882 c 0.35119,-0.38805 0.71789,-0.70555 0.81491,-0.70555 0.097,0 -0.11095,0.3175 -0.46213,0.70555 -0.35119,0.38806 -0.7179,0.70556 -0.81491,0.70556 -0.097,0 0.11095,-0.3175 0.46213,-0.70556 z m -64.074165,-0.61736 c -0.43881,-0.55952 -0.426332,-0.572 0.133193,-0.13319 0.339549,0.26629 0.617361,0.5441 0.617361,0.61736 0,0.29035 -0.289696,0.10347 -0.750554,-0.48417 z m 47.107315,-0.17639 -0.67204,-0.79375 0.79375,0.67204 c 0.74593,0.63155 0.95435,0.91546 0.67204,0.91546 -0.0669,0 -0.42413,-0.35718 -0.79375,-0.79375 z m 27.89765,-44.00902 c 0,-24.73854 0.042,-34.85885 0.0935,-22.48958 0.0514,12.36927 0.0514,32.60989 0,44.97916 -0.0514,12.36927 -0.0935,2.24896 -0.0935,-22.48958 z m -62.46987,43.65625 -0.67204,-0.79375 0.79375,0.67203 c 0.74593,0.63155 0.95435,0.91547 0.67204,0.91547 -0.0669,0 -0.42413,-0.35719 -0.79375,-0.79375 z m 11.28889,0 -0.67204,-0.79375 0.79375,0.67203 c 0.74593,0.63155 0.95435,0.91547 0.67204,0.91547 -0.067,0 -0.42413,-0.35719 -0.79375,-0.79375 z m 33.88168,-11.72987 c -1.3e-4,-6.40291 0.0476,-9.07206 0.10596,-5.93143 0.0584,3.14063 0.0585,8.37938 2.4e-4,11.64167 -0.0583,3.26229 -0.10607,0.69268 -0.1062,-5.71024 z m -67.736462,1.5875 c 0,-5.33576 0.04903,-7.51857 0.108964,-4.85069 0.05993,2.66788 0.05993,7.03351 0,9.70139 -0.05993,2.66788 -0.108964,0.48507 -0.108964,-4.8507 z m 89.928792,6.52639 c -10e-4,-1.74625 0.0586,-2.5051 0.13257,-1.68634 0.074,0.81877 0.0749,2.24752 0.002,3.175 -0.0729,0.92749 -0.13344,0.25759 -0.13452,-1.48866 z m -68.05726,-6.52639 c 0,-5.14173 0.0493,-7.24517 0.1096,-4.6743 0.0603,2.57087 0.0603,6.77774 0,9.34861 -0.0603,2.57087 -0.1096,0.46743 -0.1096,-4.67431 z m 22.93387,-1.94027 c 1.5e-4,-6.20889 0.0481,-8.69921 0.10667,-5.53404 0.0585,3.16517 0.0584,8.24517 -2.5e-4,11.28889 -0.0587,3.04372 -0.10656,0.45404 -0.10642,-5.75485 z m -3.88108,0 c -1.5e-4,-6.01486 0.048,-8.52508 0.10689,-5.57827 0.0589,2.94682 0.0591,7.86807 2.8e-4,10.93611 -0.0588,3.06805 -0.10702,0.65702 -0.10717,-5.35784 z m 34.48414,9.87777 c 0.007,-0.58208 0.0863,-0.7775 0.17569,-0.43425 0.0894,0.34324 0.0836,0.81949 -0.0131,1.05833 -0.0966,0.23884 -0.16981,-0.042 -0.16262,-0.62408 z m -95.643705,-1.08773 c 0.01693,-0.41096 0.100521,-0.49456 0.213137,-0.21313 0.101907,0.25466 0.08937,0.55893 -0.02785,0.67615 -0.117225,0.11723 -0.200604,-0.0911 -0.185286,-0.46302 z m 1.030483,-2.39685 c 0,-0.0733 0.277812,-0.35107 0.617361,-0.61736 0.559525,-0.43881 0.572003,-0.42633 0.133193,0.13319 -0.460858,0.58764 -0.750554,0.77452 -0.750554,0.48417 z m 8.06889,-0.48417 c -0.43881,-0.55952 -0.426332,-0.572 0.133193,-0.13319 0.339549,0.26629 0.617361,0.54411 0.617361,0.61736 0,0.29035 -0.289696,0.10347 -0.750554,-0.48417 z m 67.575882,-6.96736 c 2.7e-4,-4.26861 0.0512,-5.96637 0.11321,-3.7728 0.062,2.19356 0.0618,5.68606 -4.9e-4,7.76111 -0.0623,2.07504 -0.11298,0.2803 -0.11272,-3.98831 z M 44.519014,143.80244 c 1.3e-5,-23.08931 0.04224,-32.48297 0.09383,-20.87482 0.0516,11.60815 0.05159,30.4994 -2.2e-5,41.98055 -0.05161,11.48115 -0.09382,1.98357 -0.09381,-21.10573 z m 19.518701,40.50484 c 0.254662,-0.10191 0.558932,-0.0894 0.676158,0.0279 0.117225,0.11723 -0.09114,0.20061 -0.463021,0.18529 -0.410966,-0.0169 -0.494559,-0.10052 -0.213137,-0.21314 z M 169.04391,163.20521 c 5e-5,-11.05958 0.0448,-15.53296 0.0994,-9.94085 0.0546,5.59211 0.0546,14.64086 -9e-5,20.10833 -0.0547,5.46747 -0.0993,0.89211 -0.0993,-10.16748 z M 63.493214,182.18713 c 0.343241,-0.0894 0.819491,-0.0836 1.058333,0.0131 0.238842,0.0966 -0.04199,0.16982 -0.624075,0.16263 -0.582083,-0.007 -0.777499,-0.0863 -0.434258,-0.1757 z m -14.078845,-3.98886 c 0,-1.84326 0.05946,-2.59733 0.132131,-1.67569 0.07267,0.92163 0.07267,2.42975 0,3.35138 -0.07267,0.92164 -0.132131,0.16757 -0.132131,-1.67569 z m 10.599029,2.38125 -0.672037,-0.79375 0.79375,0.67204 c 0.745929,0.63155 0.954349,0.91546 0.672037,0.91546 -0.06694,0 -0.424129,-0.35719 -0.79375,-0.79375 z m 7.618241,0.30778 c 0,-0.0733 0.277812,-0.35107 0.617361,-0.61736 0.559525,-0.43881 0.572003,-0.42633 0.133193,0.13319 -0.460858,0.58764 -0.750554,0.77452 -0.750554,0.48417 z m -9.456227,-4.27653 c 0.0072,-0.58208 0.08625,-0.7775 0.175698,-0.43426 0.08945,0.34324 0.08356,0.81949 -0.01307,1.05833 -0.09663,0.23885 -0.169816,-0.042 -0.162628,-0.62407 z m 84.713658,-2.46944 c 0.002,-1.3582 0.0653,-1.8706 0.14169,-1.13866 0.0764,0.73193 0.0751,1.84318 -0.003,2.46944 -0.0779,0.62626 -0.14042,0.0274 -0.13885,-1.33078 z m -70.528449,-3.08681 -0.672038,-0.79375 0.79375,0.67204 c 0.745929,0.63155 0.954349,0.91546 0.672038,0.91546 -0.06694,0 -0.42413,-0.35719 -0.79375,-0.79375 z M 63.4865,170.89954 c 0.339548,-0.0887 0.895173,-0.0887 1.234722,0 0.339549,0.0887 0.06174,0.16133 -0.617361,0.16133 -0.679097,0 -0.95691,-0.0726 -0.617361,-0.16133 z m 7.375841,-3.2846 c 0,-0.48507 0.08007,-0.68351 0.177936,-0.44098 0.09786,0.24254 0.09786,0.63941 0,0.88195 -0.09786,0.24253 -0.177936,0.0441 -0.177936,-0.44097 z m 36.423279,-0.0882 -0.67204,-0.79375 0.79375,0.67204 c 0.74593,0.63155 0.95435,0.91546 0.67204,0.91546 -0.0669,0 -0.42413,-0.35719 -0.79375,-0.79375 z m -36.45113,-1.5287 c 0.01693,-0.41097 0.10052,-0.49456 0.213136,-0.21314 0.101907,0.25466 0.08938,0.55893 -0.02785,0.67616 -0.117225,0.11722 -0.200603,-0.0911 -0.185285,-0.46302 z m 44.68673,0.32493 c 0.24254,-0.0979 0.63941,-0.0979 0.88195,0 0.24253,0.0979 0.0441,0.17793 -0.44098,0.17793 -0.48506,0 -0.6835,-0.0801 -0.44097,-0.17793 z m -22.92644,-1.77976 c 0.438825,-0.0844 1.073825,-0.0812 1.411111,0.007 0.337287,0.0883 -0.02175,0.15734 -0.797863,0.15342 -0.776111,-0.004 -1.052073,-0.0762 -0.613248,-0.16054 z m -43.169396,-4.68938 c 0,-2.61938 0.05554,-3.69094 0.123413,-2.38125 0.06788,1.30968 0.06788,3.45281 0,4.7625 -0.06788,1.30968 -0.123413,0.23812 -0.123413,-2.38125 z m 77.567826,3.2833 c 0.34325,-0.0894 0.8195,-0.0836 1.05834,0.0131 0.23884,0.0966 -0.042,0.16982 -0.62408,0.16263 -0.58208,-0.007 -0.7775,-0.0862 -0.43426,-0.1757 z m -39.815923,-0.90205 -0.672037,-0.79375 0.79375,0.67203 c 0.745929,0.63155 0.954349,0.91547 0.672037,0.91547 -0.06694,0 -0.424129,-0.35719 -0.79375,-0.79375 z m 23.940923,-0.86184 c 0.34325,-0.0894 0.8195,-0.0836 1.05834,0.0131 0.23884,0.0966 -0.042,0.16981 -0.62408,0.16262 -0.58208,-0.007 -0.7775,-0.0862 -0.43426,-0.1757 z m -4.18537,-1.96039 -0.67203,-0.79375 0.79375,0.67204 c 0.74593,0.63155 0.95434,0.91546 0.67203,0.91546 -0.0669,0 -0.42413,-0.35718 -0.79375,-0.79375 z m 37.0069,0.17736 c 2.29077,-0.0615 5.94202,-0.0613 8.11389,4.5e-4 2.17186,0.0618 0.29759,0.11215 -4.16505,0.1119 -4.46263,-2.5e-4 -6.23962,-0.0508 -3.94884,-0.11235 z m -7.43459,-1.50027 c 0,-0.6791 0.0726,-0.95691 0.16134,-0.61736 0.0887,0.33955 0.0887,0.89517 0,1.23472 -0.0887,0.33955 -0.16134,0.0617 -0.16134,-0.61736 z m -72.820213,0.46457 c 0.254662,-0.10191 0.558933,-0.0894 0.676158,0.0279 0.117225,0.11722 -0.09114,0.2006 -0.463021,0.18528 -0.410966,-0.0169 -0.494559,-0.10052 -0.213137,-0.21313 z m 36.823813,-0.99374 c 0.007,-0.58208 0.0862,-0.7775 0.17569,-0.43426 0.0894,0.34324 0.0836,0.81949 -0.0131,1.05834 -0.0966,0.23884 -0.16981,-0.042 -0.16262,-0.62408 z m 20.82696,-0.88194 c 0,-0.6791 0.0726,-0.95691 0.16133,-0.61736 0.0887,0.33954 0.0887,0.89517 0,1.23472 -0.0887,0.33955 -0.16133,0.0617 -0.16133,-0.61736 z m 15.72701,-2.71044 c 0.25466,-0.1019 0.55893,-0.0894 0.67615,0.0279 0.11723,0.11722 -0.0911,0.2006 -0.46302,0.18528 -0.41096,-0.0169 -0.49456,-0.10052 -0.21313,-0.21314 z m -80.229002,-5.75623 c 0,-2.61937 0.05553,-3.69094 0.123412,-2.38125 0.06788,1.30969 0.06788,3.45281 0,4.7625 -0.06788,1.30969 -0.123412,0.23813 -0.123412,-2.38125 z m 78.965882,3.52778 c 0,-0.6791 0.0726,-0.95691 0.16133,-0.61736 0.0887,0.33955 0.0887,0.89517 0,1.23472 -0.0887,0.33955 -0.16133,0.0617 -0.16133,-0.61736 z m -20.21688,-0.97014 -0.85525,-0.97014 0.97014,0.85524 c 0.90674,0.79936 1.13192,1.08504 0.85525,1.08504 -0.0632,0 -0.49976,-0.43656 -0.97014,-0.97014 z m -39.742284,-0.33267 c 0.343242,-0.0894 0.819492,-0.0836 1.058334,0.0131 0.238842,0.0966 -0.04199,0.16982 -0.624076,0.16263 -0.582083,-0.007 -0.777499,-0.0863 -0.434258,-0.1757 z m 9.485794,-2.22497 c 0,-0.48507 0.08007,-0.68351 0.177936,-0.44097 0.09786,0.24253 0.09786,0.63941 0,0.88194 -0.09786,0.24254 -0.177936,0.0441 -0.177936,-0.44097 z m 1.884576,-4.23333 c 0.351185,-0.38806 0.717894,-0.70556 0.814908,-0.70556 0.09701,0 -0.110945,0.3175 -0.462131,0.70556 -0.351185,0.38805 -0.717894,0.70555 -0.814907,0.70555 -0.09701,0 0.110944,-0.3175 0.46213,-0.70555 z m -18.492983,-0.20579 c 0.01693,-0.41097 0.100521,-0.49456 0.213137,-0.21314 0.101907,0.25467 0.08937,0.55894 -0.02785,0.67616 -0.117225,0.11723 -0.200604,-0.0911 -0.185287,-0.46302 z m 29.560484,-0.0588 c -0.43881,-0.55952 -0.426332,-0.572 0.133193,-0.13319 0.339549,0.26629 0.617361,0.54411 0.617361,0.61736 0,0.29035 -0.289696,0.10347 -0.750554,-0.48417 z m -4.25448,-2.09307 c 0.254661,-0.1019 0.558932,-0.0894 0.676157,0.0279 0.117225,0.11723 -0.09113,0.20061 -0.463021,0.18529 -0.410966,-0.0169 -0.494559,-0.10052 -0.213136,-0.21314 z m -35.740799,-0.81734 c 0.351185,-0.38806 0.717894,-0.70556 0.814907,-0.70556 0.09701,0 -0.110944,0.3175 -0.46213,0.70556 -0.351185,0.38805 -0.717894,0.70555 -0.814908,0.70555 -0.09701,0 0.110945,-0.3175 0.462131,-0.70555 z m 57.465402,-2.26326 c -0.1054,-0.27465 -0.1242,-0.94934 -0.0418,-1.4993 0.12635,-0.8432 0.15813,-0.79314 0.2027,0.31938 l 0.0529,1.31932 15.9632,0.0955 15.96319,0.0955 -15.97426,0.0845 c -13.50586,0.0714 -16.00388,0.007 -16.16589,-0.41486 z m -9.39532,-2.21958 c 0.43883,-0.0844 1.07383,-0.0812 1.41111,0.007 0.33729,0.0883 -0.0217,0.15734 -0.79786,0.15342 -0.77611,-0.004 -1.05207,-0.0762 -0.61325,-0.16054 z m 12.87228,-0.34645 c 0.33955,-0.0887 0.89517,-0.0887 1.23472,0 0.33955,0.0887 0.0617,0.16133 -0.61736,0.16133 -0.6791,0 -0.95691,-0.0726 -0.61736,-0.16133 z m 21.52616,-10e-4 c 0.34324,-0.0894 0.81949,-0.0836 1.05833,0.0131 0.23884,0.0966 -0.042,0.16981 -0.62407,0.16262 -0.58209,-0.007 -0.7775,-0.0863 -0.43426,-0.17569 z m 6.60787,0.10582 c 0,-0.0762 0.24637,-0.23319 0.54749,-0.34874 0.31394,-0.12047 0.45555,-0.0613 0.33195,0.13865 -0.20717,0.33521 -0.87944,0.49581 -0.87944,0.21009 z m -85.107642,-0.4631 c 0.436562,-0.0841 1.150937,-0.0841 1.5875,0 0.436562,0.0841 0.07937,0.15289 -0.79375,0.15289 -0.873125,0 -1.230313,-0.0688 -0.79375,-0.15289 z m 11.080007,-0.45659 c 0,-0.48507 0.08007,-0.6835 0.177936,-0.44097 0.09786,0.24254 0.09786,0.63941 0,0.88195 -0.09786,0.24253 -0.177936,0.0441 -0.177936,-0.44098 z m 13.815547,-1.41111 c 0,-1.26118 0.06403,-1.77712 0.142283,-1.14653 0.07825,0.6306 0.07825,1.66247 0,2.29306 -0.07826,0.63059 -0.142283,0.11465 -0.142283,-1.14653 z m 3.510947,0.70556 c 0,-0.87313 0.0688,-1.23031 0.152883,-0.79375 0.08409,0.43656 0.08409,1.15094 0,1.5875 -0.08409,0.43656 -0.152883,0.0794 -0.152883,-0.79375 z m 5.304897,-0.88195 c 0.002,-1.16416 0.06784,-1.59788 0.146354,-0.96382 0.07851,0.63407 0.07689,1.58657 -0.0036,2.11667 -0.08049,0.5301 -0.144734,0.0113 -0.142754,-1.15285 z m 19.782184,-2.64583 c 0,-2.42535 0.0564,-3.41753 0.12525,-2.20486 0.0689,1.21267 0.0689,3.19705 0,4.40972 -0.0689,1.21267 -0.12525,0.22049 -0.12525,-2.20486 z m -37.434304,1.76389 c 0,-0.87313 0.0688,-1.23031 0.152883,-0.79375 0.08409,0.43656 0.08409,1.15094 0,1.5875 -0.08409,0.43656 -0.152883,0.0794 -0.152883,-0.79375 z m 30.338894,0 c 0,-0.87313 0.0688,-1.23031 0.15288,-0.79375 0.0841,0.43656 0.0841,1.15094 0,1.5875 -0.0841,0.43656 -0.15288,0.0794 -0.15288,-0.79375 z m -38.548867,-0.15557 c 0,-0.47362 0.130025,-0.94148 0.288945,-1.0397 0.15892,-0.0982 0.220277,0.28929 0.136349,0.86112 -0.185045,1.26079 -0.425294,1.36167 -0.425294,0.17858 z m -5.235965,-0.54999 c 0,-0.48507 0.08007,-0.6835 0.177936,-0.44097 0.09786,0.24254 0.09786,0.63941 0,0.88195 -0.09786,0.24253 -0.177936,0.0441 -0.177936,-0.44098 z m 2.15401,0.45241 c 0.536244,-0.0811 1.329995,-0.0789 1.763889,0.005 0.433895,0.0837 -0.0049,0.15008 -0.974989,0.14743 -0.970139,-0.003 -1.325144,-0.0712 -0.7889,-0.15225 z m 32.418213,-0.45241 c 0,-0.48507 0.08007,-0.6835 0.177936,-0.44097 0.09786,0.24254 0.09786,0.63941 0,0.88195 -0.09787,0.24253 -0.177936,0.0441 -0.177936,-0.44098 z m 69.603259,-14.2875 c 9e-5,-8.34319 0.0462,-11.70589 0.10254,-7.47266 0.0563,4.23323 0.0563,11.05948 -1.5e-4,15.16945 -0.0564,4.10996 -0.10247,0.64641 -0.10239,-7.69679 z m -91.794996,13.40556 c 0.0039,-0.77611 0.07616,-1.05207 0.160541,-0.61325 0.08438,0.43883 0.08118,1.07383 -0.0071,1.41111 -0.0883,0.33729 -0.157338,-0.0217 -0.153422,-0.79786 z m 14.149321,-1.94028 c 0,-1.84326 0.05946,-2.59732 0.132131,-1.67569 0.07267,0.92163 0.07267,2.42975 0,3.35139 -0.07267,0.92163 -0.132131,0.16757 -0.132131,-1.6757 z m 3.456305,2.46945 c 0,-0.48507 0.08007,-0.68351 0.177936,-0.44098 0.09786,0.24254 0.09786,0.63941 0,0.88195 -0.09786,0.24253 -0.177936,0.0441 -0.177936,-0.44097 z m 14.53703,-2.64584 c 9.2e-4,-1.94027 0.0602,-2.68902 0.13165,-1.66387 0.0715,1.02515 0.0707,2.61265 -0.002,3.52778 -0.0724,0.91513 -0.1309,0.0764 -0.12998,-1.86391 z m -35.863051,1.56917 c 0.1104,-0.86304 0.25826,-1.63531 0.328578,-1.71616 0.287826,-0.33091 0.09214,2.30303 -0.206129,2.77449 -0.209075,0.33048 -0.252307,-0.0432 -0.122449,-1.05833 z M 112.55964,128.633 c -0.001,-1.74625 0.0586,-2.50511 0.13256,-1.68634 0.074,0.81876 0.0749,2.24751 0.002,3.175 -0.0729,0.92748 -0.13345,0.25758 -0.13452,-1.48866 z m -50.477537,2.40136 c 0.343241,-0.0894 0.819491,-0.0836 1.058333,0.0131 0.238842,0.0966 -0.04199,0.16981 -0.624075,0.16262 -0.582083,-0.007 -0.7775,-0.0863 -0.434258,-0.17569 z m -0.287749,-8.31425 c -0.09388,-0.24465 -0.128403,-5.20559 -0.07671,-11.0243 l 0.09399,-10.57948 0.175978,11.02449 c 0.09679,6.06347 0.131308,11.02441 0.07671,11.02431 -0.0546,-1.1e-4 -0.17608,-0.20036 -0.269963,-0.44502 z m 48.096246,0.18328 c 1.22028,-0.0691 3.12528,-0.0685 4.23334,0.001 1.10805,0.0698 0.10964,0.12631 -2.21869,0.12561 -2.32833,-7e-4 -3.23492,-0.0578 -2.01465,-0.12687 z M 49.432954,115.933 c 3.7e-4,-3.4925 0.05316,-4.87354 0.11732,-3.06897 0.06416,1.80458 0.06385,4.66208 -6.73e-4,6.35 -0.06453,1.68793 -0.117017,0.21147 -0.116647,-3.28103 z m 21.097944,-6.61459 -0.07704,-4.85069 18.25625,0.0849 18.256252,0.0849 -18.069646,0.0947 -18.069644,0.0947 -0.109569,4.67111 -0.10957,4.67111 z m 39.573262,-0.0882 c 5.5e-4,-2.71639 0.0559,-3.78101 0.12306,-2.36582 0.0671,1.41519 0.0667,3.63769 -0.001,4.93889 -0.0677,1.3012 -0.12261,0.14332 -0.12206,-2.57307 z M 26.519104,95.648275 c 0,-8.828263 0.0458,-12.439825 0.101779,-8.025694 0.05598,4.414132 0.05598,11.637256 0,16.051389 -0.05598,4.41413 -0.101779,0.80257 -0.101779,-8.025695 z m 22.895265,10.583335 c 0,-1.84327 0.05946,-2.59733 0.132131,-1.6757 0.07267,0.92164 0.07267,2.42976 0,3.35139 -0.07267,0.92163 -0.132131,0.16757 -0.132131,-1.67569 z m 94.152691,-4.13986 c 0.92163,-0.0727 2.42975,-0.0727 3.35139,0 0.92163,0.0727 0.16756,0.13213 -1.6757,0.13213 -1.84326,0 -2.59733,-0.0595 -1.67569,-0.13213 z M 77.774,101.38115 c 5.287257,-0.0549 13.939132,-0.0549 19.226389,0 5.287261,0.0549 0.96132,0.0998 -9.613194,0.0998 -10.574514,0 -14.900452,-0.0449 -9.613195,-0.0998 z m -14.111111,-0.32207 c 0.242534,-0.0979 0.639409,-0.0979 0.881944,0 0.242535,0.0979 0.0441,0.17794 -0.440972,0.17794 -0.485069,0 -0.683507,-0.0801 -0.440972,-0.17794 z m -9.260417,-1.177472 c 0.351185,-0.388055 0.717894,-0.705555 0.814908,-0.705555 0.09701,0 -0.110945,0.3175 -0.46213,0.705555 -0.351186,0.388052 -0.717894,0.705552 -0.814908,0.705552 -0.09701,0 0.110944,-0.3175 0.46213,-0.705552 z m 85.362058,-8.378272 0.0102,-8.025893 6.45288,-0.09621 6.45289,-0.09621 -0.10289,-2.695103 c -0.10095,-2.644366 -0.12425,-2.705646 -1.23755,-3.255179 -0.65281,-0.322226 -1.28952,-0.994427 -1.49931,-1.582858 -0.49663,-1.393006 -0.50093,-1.385728 0.68002,-1.149538 0.57456,0.114912 1.12799,0.07409 1.22984,-0.0907 0.20592,-0.333181 24.43116,-0.472507 27.12441,-0.155999 1.97264,0.231823 3.92818,1.709375 4.6967,3.548709 0.4874,1.166516 0.7105,10.335591 0.25148,10.335591 -0.12382,0 -0.90536,-0.627016 -1.73675,-1.393369 -2.08754,-1.924221 -4.79925,-2.712818 -7.28112,-2.117428 -3.2896,0.789163 -5.902,4.029414 -5.91869,7.341157 l -0.008,1.537304 -2.11515,-1.958256 c -1.18626,-1.09827 -3.30732,-2.548021 -4.82981,-3.301194 l -2.71465,-1.342936 -5.27577,-0.114404 c -4.10663,-0.08905 -5.39312,-0.231757 -5.80532,-0.643959 -0.47089,-0.470889 -0.45201,-0.607105 0.17044,-1.229553 0.385,-0.384999 1.47987,-0.830608 2.43305,-0.990242 1.26255,-0.211447 0.0349,-0.301509 -4.52214,-0.331737 l -6.25518,-0.04149 -0.10498,7.9377 -0.10498,7.937699 z m 21.14331,6.173411 -0.67203,-0.79375 0.79375,0.672037 c 0.74593,0.63155 0.95435,0.915463 0.67203,0.915463 -0.0669,0 -0.42413,-0.357187 -0.79375,-0.79375 z m -84.192173,0.176521 c 7.227534,-0.0533 19.05441,-0.0533 26.281943,0 7.22754,0.0533 1.3141,0.09691 -13.140971,0.09691 -14.45507,0 -20.368507,-0.04361 -13.140972,-0.09691 z m 73.369913,-0.342937 c 0.62626,-0.07793 1.73751,-0.07921 2.46944,-0.0028 0.73193,0.07637 0.21954,0.140131 -1.13866,0.141696 -1.35819,0.0016 -1.95705,-0.06092 -1.33078,-0.13885 z m -25.55582,-1.685667 c 0.003,-0.970139 0.0712,-1.325144 0.15225,-0.788899 0.0811,0.536244 0.0789,1.329994 -0.005,1.763888 -0.0837,0.433895 -0.15008,-0.0049 -0.14743,-0.974989 z M 65.603167,95.03283 c 1.697743,-0.06467 4.475868,-0.06467 6.173611,0 1.697743,0.06467 0.30868,0.11758 -3.086806,0.11758 -3.395486,0 -4.784549,-0.05291 -3.086805,-0.11758 z m 33.513889,-0.0012 c 3.055934,-0.05873 8.056564,-0.05873 11.112504,0 3.05593,0.05873 0.55562,0.106781 -5.55625,0.106781 -6.111879,0 -8.612192,-0.04805 -5.556254,-0.106781 z m 47.082654,-0.339268 c 0.2739,-0.194708 0.47154,-1.632164 0.54938,-3.995607 l 0.12157,-3.691489 -0.0202,3.851855 c -0.0163,3.112934 -0.12172,3.879432 -0.54938,3.995608 -0.37796,0.102675 -0.40692,0.05685 -0.10137,-0.160367 z m 3.51156,0.01522 c -0.12935,-0.129351 -0.23275,-0.407164 -0.22978,-0.617361 0.003,-0.240646 0.10477,-0.225866 0.27373,0.03991 0.14758,0.232148 1.29609,0.479373 2.55223,0.549388 l 2.28391,0.127301 -2.32245,0.06797 c -1.27735,0.03739 -2.42829,-0.03786 -2.55764,-0.167213 z m 14.90756,-1.087731 -0.85525,-0.970139 0.97014,0.855244 c 0.53358,0.470384 0.97014,0.906947 0.97014,0.970139 0,0.276675 -0.28568,0.0515 -1.08503,-0.855244 z M 44.282624,91.914827 C 44.168896,90.12877 43.922103,89.35639 43.084217,88.164224 41.01309,85.21737 38.08609,83.990622 34.852617,84.714241 c -1.556349,0.348296 -2.233619,0.755833 -3.617889,2.177011 l -1.70309,1.748497 v -4.797345 c 0,-5.272273 0.291215,-6.445233 1.985024,-7.995324 0.557473,-0.510171 1.569212,-1.098318 2.24831,-1.306992 1.363012,-0.418828 92.517228,-0.269764 95.867358,0.156772 1.72546,0.219684 1.85209,0.301787 1.85209,1.200902 0,0.785207 -0.19286,1.00367 -1.03469,1.172035 -0.91894,0.183788 -1.06246,0.392149 -1.28296,1.862574 -0.13656,0.910601 -0.0822,3.020135 0.12073,4.687855 0.20296,1.667719 0.33529,3.067111 0.29408,3.10976 -0.0412,0.04265 -16.02087,0.09543 -35.510355,0.117287 -19.489481,0.02186 -36.618794,0.185617 -38.065141,0.363908 -3.740297,0.461066 -6.641244,1.915713 -9.369535,4.698248 l -2.210703,2.254656 z M 57.401083,80.655221 v -2.645834 h -1.5875 -1.5875 v 2.410648 c 0,1.325857 0.105833,2.516482 0.235185,2.645834 0.129352,0.129351 0.843727,0.235185 1.5875,0.235185 h 1.352315 z m 22.136806,9.084114 c 8.973785,-0.05243 23.658161,-0.05243 32.631941,0 8.97379,0.05243 1.6316,0.09533 -16.315969,0.09533 -17.947569,0 -25.289757,-0.0429 -16.315972,-0.09533 z m 70.731941,0.02132 c 0.33955,-0.08873 0.89518,-0.08873 1.23473,0 0.33955,0.08873 0.0617,0.161334 -0.61736,0.161334 -0.6791,0 -0.95691,-0.0726 -0.61737,-0.161334 z m 5.82084,0.0095 c 0.24253,-0.09787 0.63941,-0.09787 0.88194,0 0.24254,0.09786 0.0441,0.177936 -0.44097,0.177936 -0.48507,0 -0.68351,-0.08007 -0.44097,-0.177936 z m -24.31962,-6.710127 c 0.25466,-0.101907 0.55893,-0.08937 0.67616,0.02785 0.11722,0.117225 -0.0911,0.200604 -0.46302,0.185286 -0.41097,-0.01693 -0.49456,-0.100521 -0.21314,-0.213136 z m 7.89761,-2.490863 c 1.68793,-0.06453 4.54543,-0.06483 6.35,-6.73e-4 1.80457,0.06416 0.42354,0.11695 -3.06896,0.11732 -3.4925,3.7e-4 -4.96897,-0.05212 -3.28104,-0.116647 z m -7.40991,-2.030649 c 0.007,-0.582083 0.0863,-0.777499 0.17569,-0.434258 0.0894,0.343241 0.0836,0.819491 -0.0131,1.058333 -0.0966,0.238842 -0.16981,-0.04199 -0.16262,-0.624075 z M 29.178861,73.952443 c 0.455699,-0.485069 0.907918,-0.881944 1.004932,-0.881944 0.09701,0 -0.196456,0.396875 -0.652155,0.881944 -0.455699,0.48507 -0.907919,0.881945 -1.004932,0.881945 -0.09701,0 0.196455,-0.396875 0.652155,-0.881945 z"
           id="path5"
           sodipodi:nodetypes="sssscscssscssscsssssssssccsscccccsscsssscssssssssscsssccsssccsssssccccccssscssssssssccccccccccccsccsssscsccccccccsssscssccssssscssssscssssscsssscscscssscsscccccccccscsccsssscccccsssssscsssssssssssssssssssscsscccscccscsssscssscccccsssssssssssssssssssssssscsssscssscsssscssssssssssscssccsssssccssssssscssssssssssssssssssssssssccsccssssssccssssssscssssssssssscscccscsssssssssssscsssssssscssccccccsssssccssscssssccssscsssccscssssccsccsccssssssscsssssssssssscssssccsssssssssssssssssssccsccssssssscccccsscccccsssssccssssssssssssssssssssssssssscsssssssssssssssssscccccsssssscsssssssssssssscccccssssccsccsccsssscssssccsccsssscccccccccscsssssssssscsscsssscsscsssssccccssssssssssccsscsssssccccscsssssssccscccccccsssssssssscsssscsscsssscssssssscsssssssssssscsccccsssccsssssssssssssssssssscscccsssss" /><path
           style="display:inline;fill:#f6b632"
           d="m 35.293527,212.37466 c -1.427348,-0.40209 -2.843049,-2.0818 -3.154692,-3.743 -0.453253,-2.41604 2.079207,-5.38788 4.588723,-5.38485 2.179894,0.003 4.305016,1.95691 4.657291,4.28289 0.450838,2.97678 -2.994679,5.7173 -6.091322,4.84496 z m 139.377393,-0.29874 c -2.29775,-0.92953 -3.41215,-4.29583 -2.19737,-6.63763 0.66682,-1.28548 2.46167,-2.1928 4.33776,-2.1928 1.4697,0 1.84023,0.16467 3.01591,1.34035 1.68595,1.68595 2.06933,3.3516 1.19534,5.19339 -0.34207,0.72087 -1.11091,1.60883 -1.70852,1.97326 -1.12922,0.68859 -3.35688,0.84377 -4.64312,0.32343 z m -36.69077,-12.88465 c -0.82174,-1.25414 -0.41775,-2.01381 0.99837,-1.87734 1.33572,0.12873 1.73648,1.23669 0.78975,2.18342 -0.78033,0.78034 -1.11366,0.72328 -1.78812,-0.30608 z m -11.21762,-0.13424 c -0.50099,-0.55359 -0.54747,-0.8385 -0.23271,-1.42664 0.71369,-1.33353 2.64886,-0.4985 2.43046,1.04875 -0.15591,1.10457 -1.35373,1.31053 -2.19775,0.37789 z m -64.06978,-7.45321 c -1.45691,-1.45691 -0.415751,-4.23333 1.5875,-4.23333 1.138299,0 2.293055,1.16283 2.293055,2.30909 0,1.07809 -1.447632,2.6298 -2.453409,2.6298 -0.396875,0 -1.039091,-0.3175 -1.427146,-0.70556 z m 87.21809,-9.05867 0.0944,-8.7566 0.79997,-0.11355 0.79997,-0.11354 -0.0944,8.7566 -0.0944,8.7566 -0.79997,0.11354 -0.79996,0.11355 z m -58.64309,-0.28994 v -8.64305 h 1.058334 1.058333 v 8.42892 c 0,7.36064 -0.07072,8.45606 -0.55802,8.64306 -1.574225,0.60408 -1.558647,0.68833 -1.558647,-8.42893 z m 12.93697,8.20181 c -0.54411,-0.39786 -0.5941,-1.23902 -0.5084,-8.55486 l 0.095,-8.11361 0.97014,-0.11163 0.97014,-0.11163 -0.004,7.34357 c -0.004,7.16705 -0.19603,9.98941 -0.68041,9.98941 -0.13155,0 -0.51074,-0.19856 -0.84263,-0.44125 z m 11.21041,-0.007 c -0.0947,-0.24673 -0.12939,-4.09642 -0.0771,-8.55486 l 0.095,-8.10625 0.97014,-0.11163 0.97014,-0.11163 v 7.76158 c 0,4.26887 -0.15482,8.16879 -0.34405,8.66649 -0.36128,0.95024 -1.32053,1.22142 -1.61413,0.4563 z m 11.66101,0.008 c -0.26485,-0.76434 -0.28892,-1.97107 -0.2327,-11.6651 l 0.0549,-9.46024 0.97014,0.11163 0.97013,0.11162 0.0937,10.1878 c 0.0664,7.22224 -0.0232,10.32861 -0.30778,10.67153 -0.50144,0.60421 -1.34572,0.62752 -1.54834,0.0428 z m 11.28124,-1.72913 c -0.13852,-1.19356 -0.1369,-5.08293 0.004,-8.64306 l 0.25548,-6.47295 h 0.8437 0.84369 v 8.21972 c 0,5.92275 -0.1183,8.33802 -0.42333,8.64306 -0.8734,0.87339 -1.27212,0.41613 -1.52315,-1.74677 z m -22.74796,-18.10221 c 0,-1.01195 0.13305,-1.24713 0.70555,-1.24713 0.51472,0 0.70556,0.23518 0.70556,0.86953 0,0.50848 -0.29297,1.02632 -0.70556,1.24713 -0.64371,0.34451 -0.70555,0.26829 -0.70555,-0.86953 z m -24.694448,0.23453 c 0,-0.80214 0.666044,-1.48166 1.452269,-1.48166 0.68632,0 0.978176,0.58955 0.742225,1.4993 -0.227513,0.87722 -2.194494,0.86141 -2.194494,-0.0176 z m 13.112858,-0.2866 c 0.0849,-0.74338 0.33082,-1.04914 0.91006,-1.13141 0.64646,-0.0918 0.79375,0.0555 0.79375,0.79375 0,0.49857 -0.14577,0.90648 -0.32393,0.90648 -0.17815,0 -0.58768,0.10122 -0.91006,0.22493 -0.47641,0.18281 -0.56436,0.0342 -0.46982,-0.79375 z m 34.51214,-0.17264 c 0,-0.9094 0.12008,-1.05444 0.79375,-0.95877 0.50263,0.0714 0.79375,0.35669 0.79375,0.77788 0,0.36759 -0.35508,0.7965 -0.79375,0.95877 -0.71337,0.26389 -0.79375,0.18513 -0.79375,-0.77788 z m 11.35365,0.1241 c 0.0803,-0.69774 0.30974,-0.97014 0.81719,-0.97014 0.50745,0 0.73689,0.2724 0.81718,0.97014 0.0968,0.84095 -0.0121,0.97014 -0.81718,0.97014 -0.80513,0 -0.91395,-0.12919 -0.81719,-0.97014 z m -74.022151,-0.438 c -1.728747,-0.69763 -2.330651,-2.71333 -1.366795,-4.57722 1.566153,-3.02861 6.427071,-0.34178 5.114518,2.827 -0.244897,0.59123 -0.891273,1.30561 -1.436391,1.5875 -1.118341,0.57832 -1.257253,0.58809 -2.311332,0.16272 z m 13.943667,-9.83924 -1.369608,-1.36961 v -5.90888 -5.90887 l 1.24492,-1.17411 c 1.681377,-1.58575 3.336504,-1.8693 5.311217,-0.90991 2.359986,1.14657 2.636943,1.82462 2.86063,7.00342 0.235303,5.44773 -0.103655,7.01436 -1.84924,8.54701 -1.039786,0.91294 -1.534114,1.09056 -3.035195,1.09056 -1.612543,0 -1.931041,-0.13793 -3.162724,-1.36961 z m 35.688424,-1.0292 c -2.24356,-2.24356 -0.83405,-5.71508 2.32043,-5.71508 0.51605,0 1.32741,0.43493 1.92368,1.03119 1.99062,1.99063 0.9459,5.1035 -1.86286,5.55061 -1.12889,0.1797 -1.45268,0.0618 -2.38125,-0.86672 z m -15.78587,-1.30646 c -1.65126,-1.15658 -1.75189,-4.14441 -0.17982,-5.33879 1.02821,-0.78118 3.37098,-0.59605 4.24616,0.33554 1.10647,1.17778 1.05703,3.51172 -0.0989,4.66761 -1.00427,1.00427 -2.79642,1.15589 -3.96748,0.33564 z m 30.93895,-2.4306 v -1.62525 h 6.35 6.35 v 1.41112 1.41111 h -5.79198 c -3.18559,0 -6.04309,0.0964 -6.35,0.21413 -0.45908,0.17616 -0.55802,-0.074 -0.55802,-1.41111 z m -66.666028,-8.67183 c -1.639239,-1.63924 -1.158271,-4.27749 0.903882,-4.95806 1.470352,-0.48526 2.382011,-0.2208 3.311276,0.96057 0.974355,1.23869 0.914176,2.76284 -0.151151,3.82817 -1.092333,1.09233 -3.059058,1.17427 -4.064007,0.16932 z m 45.032848,-11.1764 c -0.40362,-0.40363 -0.28242,-29.01457 0.12615,-29.77798 0.35193,-0.65759 0.89001,-0.68237 14.82041,-0.68237 h 14.45523 l -0.0919,15.25764 -0.0919,15.25764 -14.48942,0.0921 c -7.96919,0.0506 -14.597,-0.0155 -14.72848,-0.14699 z m 21.2804,-16.17285 v -8.29027 h -6.52639 -6.52639 v 8.29027 8.29028 h 6.52639 6.52639 z m -10.23055,0 v -5.49273 l 3.61597,0.10053 3.61597,0.10054 v 5.29166 5.29167 l -3.61597,0.10054 -3.61597,0.10053 z M 35.34143,96.688292 c -2.930585,-0.862287 -4.247996,-4.309598 -2.649074,-6.931917 2.432622,-3.989633 8.480669,-2.177131 8.477306,2.540511 -0.0022,3.090815 -2.879745,5.25896 -5.828232,4.391406 z m 139.63014,-0.324306 c -1.85053,-0.836809 -2.91461,-2.483518 -2.91639,-4.513252 -0.001,-1.206645 0.2257,-1.752207 1.14542,-2.755796 3.95677,-4.317584 10.80783,1.595982 6.94542,5.995018 -0.97622,1.111862 -1.39396,1.351734 -3.15327,1.810677 -0.29104,0.07592 -1.20057,-0.165568 -2.02118,-0.536647 z"
           id="path4" /><path
           style="display:inline;fill:#629f91"
           d="m 120.29044,226.63713 c 0.34324,-0.0894 0.81949,-0.0836 1.05833,0.0131 0.23884,0.0966 -0.042,0.16982 -0.62407,0.16263 -0.58209,-0.007 -0.7775,-0.0863 -0.43426,-0.1757 z m 11.63495,-0.0178 c 1.50371,-0.0661 3.96434,-0.0661 5.46806,0 1.50371,0.0661 0.2734,0.12023 -2.73403,0.12023 -3.00743,0 -4.23775,-0.0541 -2.73403,-0.12023 z m 50.18264,-1.50167 c 0.35118,-0.38805 0.71789,-0.70555 0.81491,-0.70555 0.097,0 -0.11095,0.3175 -0.46213,0.70555 -0.35119,0.38806 -0.7179,0.70556 -0.81491,0.70556 -0.097,0 0.11094,-0.3175 0.46213,-0.70556 z m -55.62865,-1.6521 c 0.25466,-0.1019 0.55893,-0.0894 0.67616,0.0279 0.11723,0.11723 -0.0911,0.20061 -0.46302,0.18529 -0.41097,-0.0169 -0.49456,-0.10052 -0.21314,-0.21314 z m 12.86705,-1.69929 c 0.003,-0.97014 0.0712,-1.32514 0.15225,-0.7889 0.0811,0.53625 0.0789,1.33 -0.005,1.76389 -0.0837,0.4339 -0.15008,-0.005 -0.14743,-0.97499 z m -84.502986,0.98576 c 0.436563,-0.0841 1.150938,-0.0841 1.5875,0 0.436563,0.0841 0.07938,0.15288 -0.79375,0.15288 -0.873125,0 -1.230312,-0.0688 -0.79375,-0.15288 z M 29.58734,221.94271 c 0,-0.48507 0.08007,-0.68351 0.177936,-0.44097 0.09786,0.24253 0.09786,0.63941 0,0.88194 -0.09786,0.24254 -0.177936,0.0441 -0.177936,-0.44097 z m 154.13604,0.14699 c 0.0169,-0.41096 0.10052,-0.49456 0.21314,-0.21313 0.1019,0.25466 0.0894,0.55893 -0.0279,0.67615 -0.11723,0.11723 -0.20061,-0.0911 -0.18529,-0.46302 z M 57.04472,219.40103 c -0.09504,-1.49494 -0.04594,-2.59045 0.109111,-2.43448 0.155054,0.15598 0.232815,1.37912 0.172804,2.71808 l -0.109111,2.43447 z m 95.71208,-0.28054 c 0,-1.06715 0.0661,-1.50372 0.14696,-0.97014 0.0808,0.53358 0.0808,1.4067 0,1.94028 -0.0808,0.53357 -0.14696,0.097 -0.14696,-0.97014 z m -23.80797,0.46457 c 0.25466,-0.10191 0.55893,-0.0894 0.67615,0.0279 0.11723,0.11722 -0.0911,0.2006 -0.46302,0.18528 -0.41096,-0.0169 -0.49456,-0.10052 -0.21313,-0.21313 z m -3.36074,-3.1104 c 0.003,-0.97014 0.0712,-1.32515 0.15225,-0.7889 0.0811,0.53624 0.0789,1.32999 -0.005,1.76389 -0.0837,0.43389 -0.15008,-0.005 -0.14744,-0.97499 z m 8.98725,0.27966 c 0.43882,-0.0844 1.07382,-0.0812 1.41111,0.007 0.33728,0.0883 -0.0217,0.15733 -0.79787,0.15342 -0.77611,-0.004 -1.05207,-0.0762 -0.61324,-0.16054 z m -6.12998,-4.33661 c 0,-2.42535 0.0564,-3.41753 0.12525,-2.20486 0.0689,1.21267 0.0689,3.19705 0,4.40972 -0.0689,1.21268 -0.12525,0.22049 -0.12525,-2.20486 z m 22.53674,3.98886 c 0.34325,-0.0894 0.8195,-0.0836 1.05834,0.0131 0.23884,0.0966 -0.042,0.16982 -0.62408,0.16263 -0.58208,-0.007 -0.7775,-0.0863 -0.43426,-0.1757 z m 25.22101,-1.06336 c 0.43883,-0.0844 1.07383,-0.0812 1.41112,0.007 0.33728,0.0883 -0.0218,0.15734 -0.79787,0.15343 -0.77611,-0.004 -1.05207,-0.0762 -0.61325,-0.16054 z m -28.3852,-1.86717 c 0,-1.06715 0.0661,-1.50371 0.14696,-0.97013 0.0808,0.53357 0.0808,1.4067 0,1.94027 -0.0808,0.53358 -0.14696,0.097 -0.14696,-0.97014 z m 23.15092,-0.61736 -0.85525,-0.97014 0.97014,0.85525 c 0.90674,0.79935 1.13192,1.08503 0.85525,1.08503 -0.0632,0 -0.49976,-0.43656 -0.97014,-0.97014 z m -140.758336,-0.35277 -0.855245,-0.97014 0.970139,0.85524 c 0.533577,0.47039 0.970139,0.90695 0.970139,0.97014 0,0.27667 -0.285679,0.0515 -1.085033,-0.85524 z m 152.779476,-0.22139 c 0,-0.0733 0.27782,-0.35107 0.61736,-0.61736 0.55953,-0.43881 0.57201,-0.42633 0.1332,0.13319 -0.46086,0.58764 -0.75056,0.77452 -0.75056,0.48417 z M 63.839278,211.80066 c 4.608159,-0.0557 12.148784,-0.0557 16.756944,0 4.60816,0.0557 0.837848,0.10128 -8.378472,0.10128 -9.21632,0 -12.986632,-0.0456 -8.378472,-0.10128 z m 57.061802,-2.55795 c -0.31795,-0.20548 -0.36146,-0.34413 -0.10901,-0.34737 0.23108,-0.003 0.51826,0.15334 0.63818,0.34737 0.27069,0.43798 0.14856,0.43798 -0.52917,0 z m -62.882636,-0.26008 c 1.018646,-0.0713 2.685521,-0.0713 3.704167,0 1.018646,0.0713 0.185208,0.12957 -1.852083,0.12957 -2.037292,0 -2.87073,-0.0583 -1.852084,-0.12957 z m 37.747223,-0.004 c 3.346979,-0.058 8.823853,-0.058 12.170833,0 3.34698,0.058 0.60854,0.10542 -6.08542,0.10542 -6.693955,0 -9.432392,-0.0474 -6.085413,-0.10542 z m 21.188713,0.023 c 0.25466,-0.1019 0.55893,-0.0894 0.67616,0.0279 0.11722,0.11722 -0.0911,0.2006 -0.46302,0.18528 -0.41097,-0.0169 -0.49456,-0.10052 -0.21314,-0.21314 z m 28.37657,-0.002 c 0.33954,-0.0887 0.89517,-0.0887 1.23472,0 0.33955,0.0887 0.0617,0.16134 -0.61736,0.16134 -0.6791,0 -0.95691,-0.0726 -0.61736,-0.16134 z m 5.46805,-0.006 c 0.43656,-0.0841 1.15094,-0.0841 1.5875,0 0.43656,0.0841 0.0794,0.15289 -0.79375,0.15289 -0.87312,0 -1.23031,-0.0688 -0.79375,-0.15289 z M 44.401163,206.86146 c -0.05262,-1.1414 0.383356,-1.51496 0.862774,-0.73924 0.150328,0.24324 0.09734,0.31187 -0.13156,0.17041 -0.231171,-0.14287 -0.441827,0.1505 -0.530816,0.73924 -0.138436,0.91588 -0.150803,0.90537 -0.200398,-0.17041 z M 168.62698,206.2441 c 0.003,-0.97014 0.0712,-1.32514 0.15225,-0.7889 0.0811,0.53625 0.0789,1.33 -0.005,1.76389 -0.0837,0.43389 -0.15008,-0.005 -0.14744,-0.97499 z M 29.531638,204.283 c 0,-0.20548 0.15875,-0.27548 0.352778,-0.15557 0.194028,0.11992 0.352778,0.28804 0.352778,0.3736 0,0.0856 -0.15875,0.15557 -0.352778,0.15557 -0.194028,0 -0.352778,-0.16812 -0.352778,-0.3736 z m 117.748912,-1.64905 c 0.82974,-0.0745 2.09974,-0.0735 2.82222,0.002 0.72248,0.0758 0.0436,0.13678 -1.50863,0.1355 -1.55222,-10e-4 -2.14334,-0.0633 -1.31359,-0.13783 z m 7.42106,0.0178 c 0.25466,-0.1019 0.55893,-0.0894 0.67615,0.0279 0.11723,0.11722 -0.0911,0.2006 -0.46302,0.18528 -0.41096,-0.0169 -0.49456,-0.10052 -0.21313,-0.21314 z m 27.02012,-0.55276 -0.67203,-0.79375 0.79375,0.67204 c 0.74592,0.63155 0.95434,0.91546 0.67203,0.91546 -0.0669,0 -0.42413,-0.35719 -0.79375,-0.79375 z m -10.30465,-1.14653 c 0.007,-0.58208 0.0863,-0.77749 0.1757,-0.43425 0.0894,0.34324 0.0836,0.81949 -0.0131,1.05833 -0.0966,0.23884 -0.16982,-0.042 -0.16263,-0.62408 z m -110.385353,-0.7911 c 1.317757,-0.0681 3.381507,-0.0675 4.586111,0.001 1.204604,0.0687 0.12644,0.12437 -2.395922,0.12375 -2.522361,-6.2e-4 -3.507946,-0.0568 -2.190189,-0.12487 z m 55.372213,-0.97278 c 0.004,-0.77612 0.0762,-1.05208 0.16054,-0.61325 0.0844,0.43882 0.0812,1.07382 -0.007,1.41111 -0.0883,0.33729 -0.15734,-0.0217 -0.15342,-0.79786 z M 84.308279,197.2483 c 0,-0.87313 0.0688,-1.23031 0.152882,-0.79375 0.08409,0.43656 0.08409,1.15094 0,1.5875 -0.08409,0.43656 -0.152882,0.0794 -0.152882,-0.79375 z m 84.686341,-3.35139 c 0.002,-1.35819 0.0653,-1.87059 0.1417,-1.13866 0.0764,0.73193 0.0751,1.84318 -0.003,2.46944 -0.0779,0.62627 -0.14041,0.0274 -0.13885,-1.33078 z M 49.429183,186.66494 c 0,-3.00743 0.0541,-4.23775 0.120234,-2.73403 0.06613,1.50371 0.06613,3.96434 0,5.46805 -0.06613,1.50372 -0.120234,0.27341 -0.120234,-2.73402 z m 86.048707,2.11666 c 0,-1.26118 0.064,-1.77712 0.14228,-1.14653 0.0783,0.63059 0.0783,1.66247 0,2.29306 -0.0782,0.63059 -0.14228,0.11465 -0.14228,-1.14653 z m -3.9247,0.88195 c 0.007,-0.58209 0.0863,-0.7775 0.1757,-0.43426 0.0894,0.34324 0.0836,0.81949 -0.0131,1.05833 -0.0966,0.23884 -0.16982,-0.042 -0.16263,-0.62407 z m 11.36892,-6.17361 c 0,-3.97757 0.0514,-5.60476 0.11433,-3.61598 0.0629,1.98879 0.0629,5.24316 0,7.23195 -0.0629,1.98878 -0.11433,0.36159 -0.11433,-3.61597 z m -73.498731,6.14421 c 0.01693,-0.41097 0.10052,-0.49456 0.213136,-0.21314 0.101907,0.25466 0.08937,0.55893 -0.02785,0.67616 -0.117225,0.11722 -0.200603,-0.0911 -0.185285,-0.46302 z m 6.816916,-5.79144 c 0,-3.00743 0.0541,-4.23774 0.120233,-2.73402 0.06613,1.50371 0.06613,3.96434 0,5.46805 -0.06613,1.50372 -0.120233,0.2734 -0.120233,-2.73403 z m 11.968216,0.17639 c 0.0016,-1.35819 0.06533,-1.87059 0.141696,-1.13866 0.07637,0.73193 0.07509,1.84318 -0.0028,2.46945 -0.07793,0.62626 -0.140415,0.0274 -0.13885,-1.33079 z m 72.998209,0.35278 c 0.004,-0.77611 0.0762,-1.05207 0.16054,-0.61325 0.0844,0.43883 0.0812,1.07383 -0.007,1.41111 -0.0883,0.33729 -0.15734,-0.0217 -0.15342,-0.79786 z m 7.76111,0 c 0.004,-0.77611 0.0762,-1.05207 0.16054,-0.61325 0.0844,0.43883 0.0812,1.07383 -0.007,1.41111 -0.0883,0.33729 -0.15734,-0.0217 -0.15342,-0.79786 z m -80.738012,-7.40833 c 6.18e-4,-2.52236 0.05681,-3.50795 0.124869,-2.19019 0.06806,1.31775 0.06756,3.3815 -0.0011,4.58611 -0.06868,1.2046 -0.124364,0.12644 -0.123747,-2.39592 z m 24.348212,-1.94028 c 0,-3.20146 0.0535,-4.51115 0.11885,-2.91042 0.0654,1.60073 0.0654,4.22011 0,5.82084 -0.0654,1.60073 -0.11885,0.29104 -0.11885,-2.91042 z m -49.978358,3.79236 c -0.31939,-0.24253 -0.748247,-0.89218 -0.953017,-1.44367 -0.814439,-2.19343 1.514545,-4.06387 3.738635,-3.00255 0.840995,0.40132 1.029764,0.73192 1.11916,1.96007 0.08131,1.11706 -0.06925,1.65411 -0.617361,2.20223 -0.813066,0.81306 -2.409076,0.95091 -3.287417,0.28392 z m 98.545928,-1.88148 c 0.0169,-0.41097 0.10052,-0.49456 0.21314,-0.21314 0.10191,0.25466 0.0894,0.55893 -0.0279,0.67616 -0.11723,0.11723 -0.20061,-0.0911 -0.18529,-0.46302 z M 49.429183,169.7316 c 0,-3.00743 0.0541,-4.23774 0.120234,-2.73402 0.06613,1.50371 0.06613,3.96434 0,5.46805 -0.06613,1.50372 -0.120234,0.2734 -0.120234,-2.73403 z m 93.425967,1.05834 c 0,-0.6791 0.0726,-0.95691 0.16134,-0.61736 0.0887,0.33954 0.0887,0.89517 0,1.23472 -0.0887,0.33955 -0.16134,0.0617 -0.16134,-0.61736 z m -7.4214,-0.17639 c 0.007,-0.58209 0.0863,-0.7775 0.17569,-0.43426 0.0894,0.34324 0.0836,0.81949 -0.0131,1.05833 -0.0966,0.23884 -0.16981,-0.042 -0.16262,-0.62407 z m 1.21151,-11.03877 c -0.0949,-0.15348 0.41171,-0.22371 1.12571,-0.15606 2.18151,0.20669 2.43877,0.35123 0.70163,0.39418 -0.91018,0.0225 -1.73248,-0.0847 -1.82734,-0.23812 z m -2.98847,-2.54318 c 0,-0.48507 0.0801,-0.6835 0.17793,-0.44097 0.0979,0.24254 0.0979,0.63941 0,0.88195 -0.0979,0.24253 -0.17793,0.0441 -0.17793,-0.44098 z m -64.437651,-1.05833 c 0.351185,-0.38805 0.717894,-0.70555 0.814908,-0.70555 0.09701,0 -0.110945,0.3175 -0.46213,0.70555 -0.351186,0.38806 -0.717894,0.70556 -0.814908,0.70556 -0.09701,0 0.110944,-0.3175 0.46213,-0.70556 z m 31.316921,-0.70555 c 0,-0.87313 0.0688,-1.23032 0.15288,-0.79375 0.0841,0.43656 0.0841,1.15093 0,1.5875 -0.0841,0.43656 -0.15288,0.0794 -0.15288,-0.79375 z m 37.3802,0.35277 c 0,-0.67909 0.0726,-0.95691 0.16134,-0.61736 0.0887,0.33955 0.0887,0.89518 0,1.23472 -0.0887,0.33955 -0.16134,0.0617 -0.16134,-0.61736 z M 62.348461,155.2511 c -2.233166,-0.5093 -2.477933,-1.18496 -2.477933,-6.84014 0,-4.86531 0.02574,-5.03888 0.864124,-5.8265 1.227124,-1.15283 3.549784,-1.18833 4.456863,-0.0681 0.598435,0.73904 0.6562,1.39207 0.582104,6.58072 -0.04524,3.16814 -0.161633,5.83027 -0.258647,5.91584 -0.42414,0.3741 -2.03825,0.49554 -3.166511,0.23822 z m 23.050912,-2.982 c 9.19e-4,-1.94027 0.06016,-2.68901 0.131648,-1.66386 0.07149,1.02515 0.07074,2.61265 -0.0017,3.52777 -0.07241,0.91513 -0.130895,0.0764 -0.129977,-1.86391 z m -35.95075,-11.64166 c 8.8e-5,-8.14917 0.04637,-11.43254 0.102839,-7.29639 0.05647,4.13615 0.0564,10.80365 -1.59e-4,14.81666 -0.05656,4.01302 -0.102767,0.62889 -0.10268,-7.52027 z m 82.343577,11.90625 c -0.43881,-0.55953 -0.42634,-0.57201 0.13319,-0.1332 0.58764,0.46086 0.77452,0.75056 0.48417,0.75056 -0.0733,0 -0.35107,-0.27781 -0.61736,-0.61736 z m -63.366041,-2.38125 c 0.0039,-0.77611 0.07616,-1.05207 0.160541,-0.61325 0.08438,0.43882 0.08118,1.07382 -0.0071,1.41111 -0.0883,0.33729 -0.157338,-0.0217 -0.153422,-0.79786 z m 67.931001,0.64095 c 0.25466,-0.1019 0.55893,-0.0894 0.67616,0.0279 0.11722,0.11722 -0.0911,0.2006 -0.46302,0.18528 -0.41097,-0.0169 -0.49456,-0.10052 -0.21314,-0.21314 z m 32.66369,-12.81178 c 0,-3.00743 0.0541,-4.23775 0.12023,-2.73403 0.0661,1.50371 0.0661,3.96434 0,5.46805 -0.0661,1.50372 -0.12023,0.27341 -0.12023,-2.73402 z m -76.430183,3.64691 c 0.242535,-0.0979 0.63941,-0.0979 0.881944,0 0.242535,0.0979 0.0441,0.17794 -0.440972,0.17794 -0.485069,0 -0.683507,-0.0801 -0.440972,-0.17794 z m 55.386113,-2.82222 c 0.24253,-0.0979 0.63941,-0.0979 0.88194,0 0.24254,0.0979 0.0441,0.17794 -0.44097,0.17794 -0.48507,0 -0.68351,-0.0801 -0.44097,-0.17794 z m -32.33951,-3.14715 c 0.0169,-0.41096 0.10052,-0.49456 0.21313,-0.21313 0.10191,0.25466 0.0894,0.55893 -0.0278,0.67615 -0.11722,0.11723 -0.2006,-0.0911 -0.18528,-0.46302 z m 2.86314,-0.67616 c 0.007,-0.58208 0.0863,-0.77749 0.1757,-0.43425 0.0894,0.34324 0.0836,0.81949 -0.0131,1.05833 -0.0966,0.23884 -0.16982,-0.042 -0.16263,-0.62408 z m -45.135362,-1.76388 c 0.0039,-0.77612 0.07616,-1.05208 0.160541,-0.61325 0.08438,0.43882 0.08118,1.07382 -0.0071,1.41111 -0.0883,0.33729 -0.157338,-0.0217 -0.153422,-0.79786 z m 17.252848,-0.88195 c 0,-0.48507 0.08007,-0.68351 0.177937,-0.44097 0.09786,0.24253 0.09786,0.63941 0,0.88194 -0.09786,0.24254 -0.177937,0.0441 -0.177937,-0.44097 z m 10.263824,-5.11528 c 0.004,-0.77611 0.0761,-1.05207 0.16054,-0.61324 0.0844,0.43882 0.0812,1.07382 -0.007,1.41111 -0.0883,0.33728 -0.15734,-0.0217 -0.15342,-0.79787 z M 49.392909,123.8705 c 0,-1.06716 0.06613,-1.50372 0.146964,-0.97014 0.08083,0.53357 0.08083,1.4067 0,1.94027 -0.08083,0.53358 -0.146964,0.097 -0.146964,-0.97013 z m 24.349754,-0.97001 c 6.368495,-0.0539 16.687245,-0.0539 22.930556,7e-5 6.243311,0.054 1.032726,0.0981 -11.57908,0.098 -12.611806,-4e-5 -17.71997,-0.0442 -11.351476,-0.0981 z M 36.682102,114.4538 c 0.343242,-0.0894 0.819492,-0.0836 1.058334,0.0131 0.238842,0.0966 -0.04199,0.16982 -0.624075,0.16263 -0.582084,-0.007 -0.7775,-0.0862 -0.434259,-0.1757 z m 4.899683,-3.63608 c 0,-0.48507 0.08007,-0.68351 0.177936,-0.44097 0.09786,0.24253 0.09786,0.63941 0,0.88194 -0.09786,0.24254 -0.177936,0.0441 -0.177936,-0.44097 z m 0.03326,-10.05417 c 0.0039,-0.776109 0.07616,-1.05207 0.160541,-0.61325 0.08438,0.43883 0.08118,1.07383 -0.0071,1.41112 -0.0883,0.33728 -0.157338,-0.0218 -0.153422,-0.79787 z m 76.889135,-2.008186 -0.0725,-3.419299 -1.49931,-0.13504 -1.4993,-0.13504 1.51038,-0.06163 c 0.97796,-0.03991 1.5738,0.103653 1.6903,0.40726 0.099,0.25789 0.12663,1.885078 0.0615,3.615972 l -0.11846,3.147073 z m -10.92046,2.633146 c 0.72761,-0.0761 1.91823,-0.0761 2.64584,0 0.7276,0.0761 0.13229,0.13838 -1.32292,0.13838 -1.45521,0 -2.05052,-0.0623 -1.32292,-0.13838 z m 24.36639,-2.918013 c 0,-1.26118 0.064,-1.777118 0.14228,-1.146528 0.0783,0.630591 0.0783,1.662466 0,2.293056 -0.0782,0.630595 -0.14228,0.114653 -0.14228,-1.146528 z m 27.00598,1.146528 c -0.43881,-0.559525 -0.42634,-0.572003 0.13319,-0.133193 0.33955,0.266292 0.61736,0.544108 0.61736,0.617358 0,0.29035 -0.2897,0.10347 -0.75055,-0.484165 z m -122.805758,0.01508 c 0.438825,-0.08438 1.073825,-0.08118 1.411111,0.0071 0.337286,0.0883 -0.02175,0.157337 -0.797863,0.153421 -0.776111,-0.0039 -1.052073,-0.07616 -0.613248,-0.160541 z m 139.365158,0.0085 c 0.25467,-0.101907 0.55894,-0.08937 0.67616,0.02785 0.11723,0.117225 -0.0911,0.200603 -0.46302,0.185285 -0.41097,-0.01693 -0.49456,-0.10052 -0.21314,-0.213136 z m 1.76389,0 c 0.25466,-0.101907 0.55894,-0.08937 0.67616,0.02785 0.11723,0.117225 -0.0911,0.200603 -0.46302,0.185285 -0.41097,-0.01693 -0.49456,-0.10052 -0.21314,-0.213136 z m -146.546541,-2.316652 -0.672037,-0.79375 0.79375,0.672038 c 0.436562,0.36962 0.79375,0.726808 0.79375,0.79375 0,0.282311 -0.283914,0.07389 -0.915463,-0.672038 z m 116.714771,0.197794 c 0.33955,-0.08873 0.89518,-0.08873 1.23472,0 0.33955,0.08873 0.0617,0.161333 -0.61736,0.161333 -0.67909,0 -0.95691,-0.0726 -0.61736,-0.161333 z m 6.54844,0.0022 c 0.25466,-0.101907 0.55893,-0.08937 0.67616,0.02785 0.11722,0.117225 -0.0911,0.200604 -0.46302,0.185286 -0.41097,-0.01693 -0.49456,-0.100521 -0.21314,-0.213136 z M 29.559489,96.500821 c 0.01693,-0.410966 0.100521,-0.494559 0.213137,-0.213136 0.101907,0.254661 0.08937,0.558932 -0.02785,0.676157 -0.117225,0.117225 -0.200604,-0.09113 -0.185287,-0.463021 z m 29.50942,-1.459935 c 0.626263,-0.07793 1.737513,-0.07921 2.469445,-0.0028 0.731931,0.07637 0.219535,0.140131 -1.13866,0.141696 -1.358194,0.0016 -1.957048,-0.06092 -1.330785,-0.138851 z m 85.031431,-0.347672 c 0.43882,-0.08438 1.07382,-0.08118 1.41111,0.0071 0.33728,0.0883 -0.0217,0.157338 -0.79787,0.153422 -0.77611,-0.0039 -1.05207,-0.07616 -0.61324,-0.160541 z M 48.758027,93.531609 c 0.351186,-0.388056 0.717894,-0.705556 0.814908,-0.705556 0.09701,0 -0.110944,0.3175 -0.46213,0.705556 -0.351185,0.388055 -0.717894,0.705555 -0.814908,0.705555 -0.09701,0 0.110945,-0.3175 0.46213,-0.705555 z M 149.5818,92.120498 c 0,-1.067153 0.0661,-1.503716 0.14696,-0.970139 0.0808,0.533576 0.0808,1.406701 0,1.940277 -0.0808,0.533577 -0.14696,0.09701 -0.14696,-0.970138 z M 46.641361,91.76772 c 0.757852,-0.776111 1.457288,-1.411111 1.554302,-1.411111 0.09701,0 -0.443672,0.635 -1.201524,1.411111 -0.757853,0.776111 -1.457289,1.411111 -1.554303,1.411111 -0.09701,0 0.443672,-0.635 1.201525,-1.411111 z M 59.43888,89.74507 c 0.829747,-0.07452 2.099747,-0.07347 2.822223,0.0023 0.722475,0.0758 0.04359,0.136777 -1.508631,0.135495 -1.552222,-0.0013 -2.143338,-0.0633 -1.313592,-0.137825 z m 72.45402,-1.505128 c 0,-0.485069 0.0801,-0.683507 0.17793,-0.440972 0.0979,0.242535 0.0979,0.63941 0,0.881944 -0.0979,0.242535 -0.17793,0.0441 -0.17793,-0.440972 z m 51.62624,0.352778 c -0.11992,-0.194028 -0.0499,-0.352778 0.15557,-0.352778 0.20548,0 0.3736,0.15875 0.3736,0.352778 0,0.194028 -0.07,0.352778 -0.15557,0.352778 -0.0856,0 -0.25368,-0.15875 -0.3736,-0.352778 z M 31.295527,86.652442 c 0.455699,-0.485069 0.907919,-0.881944 1.004933,-0.881944 0.09701,0 -0.196456,0.396875 -0.652155,0.881944 -0.455699,0.48507 -0.907919,0.881945 -1.004933,0.881945 -0.09701,0 0.196456,-0.396875 0.652155,-0.881945 z m 29.545139,0.266324 c 1.794757,-0.06403 4.731632,-0.06403 6.526389,0 1.794757,0.06403 0.32632,0.11641 -3.263194,0.11641 -3.589514,0 -5.057951,-0.05238 -3.263195,-0.11641 z m 27.189751,-0.0016 c 6.853703,-0.05357 17.966203,-0.05354 24.694443,6.2e-5 6.72824,0.0536 1.12067,0.09743 -12.46128,0.0974 -13.581941,-3.5e-5 -19.086866,-0.04389 -12.233163,-0.09746 z m -52.060584,-2.44818 c 0.339548,-0.08873 0.895173,-0.08873 1.234722,0 0.339549,0.08873 0.06174,0.161333 -0.617361,0.161333 -0.679097,0 -0.95691,-0.0726 -0.617361,-0.161333 z m 140.059497,-0.0013 c 0.34324,-0.08944 0.81949,-0.08356 1.05833,0.01307 0.23884,0.09663 -0.042,0.169816 -0.62408,0.162626 -0.58208,-0.0072 -0.77749,-0.08625 -0.43425,-0.175698 z m -46.86908,-1.649662 c -0.10194,-0.265663 -0.12632,-1.337225 -0.0542,-2.38125 l 0.13117,-1.898227 0.0652,2.18251 c 0.0652,2.181859 0.0656,2.182551 1.21179,2.324792 l 1.14653,0.142283 -1.1576,0.05646 c -0.69771,0.03403 -1.23124,-0.135436 -1.34296,-0.426565 z m 3.13544,-1.633644 c 0,-1.067152 0.0661,-1.503715 0.14696,-0.970139 0.0808,0.533577 0.0808,1.406702 0,1.940278 -0.0808,0.533576 -0.14696,0.09701 -0.14696,-0.970139 z m 20.05832,-2.469444 c 0,-0.485069 0.0801,-0.683507 0.17793,-0.440972 0.0979,0.242534 0.0979,0.639409 0,0.881944 -0.0979,0.242535 -0.17793,0.0441 -0.17793,-0.440972 z M 31.119138,75.892721 c 0.351186,-0.388056 0.717894,-0.705556 0.814908,-0.705556 0.09701,0 -0.110944,0.3175 -0.46213,0.705556 -0.351185,0.388055 -0.717894,0.705555 -0.814908,0.705555 -0.09701,0 0.110945,-0.3175 0.46213,-0.705555 z m 150.955372,-0.08819 -0.67204,-0.793749 0.79375,0.672037 c 0.43657,0.36962 0.79375,0.726808 0.79375,0.79375 0,0.282311 -0.28391,0.07389 -0.91546,-0.672038 z M 40.379555,73.865481 c 2.182813,-0.06189 5.754688,-0.06189 7.9375,0 2.182813,0.06189 0.396875,0.112534 -3.96875,0.112534 -4.365625,0 -6.151562,-0.05064 -3.96875,-0.112534 z m 42.535631,-0.0011 c 6.950742,-0.0535 18.221994,-0.05347 25.047224,6.1e-5 6.82523,0.05354 1.13826,0.09731 -12.637715,0.09728 -13.775973,-3.4e-5 -19.360252,-0.04384 -12.409509,-0.09734 z m 78.819924,0.002 c 1.60073,-0.06537 4.22011,-0.06537 5.82084,0 1.60072,0.06537 0.29104,0.11885 -2.91042,0.11885 -3.20146,0 -4.51115,-0.05348 -2.91042,-0.11885 z"
           id="path3" /><path
           style="display:inline;fill:#312d34"
           d="m 32.353861,228.73448 c -1.743199,-0.84779 -4.443005,-3.71143 -4.983153,-5.28555 -0.367223,-1.07017 -0.459114,-15.38182 -0.470613,-73.29649 l -0.01429,-71.966664 1.040327,-1.87803 c 0.57218,-1.032916 1.629404,-2.344586 2.349386,-2.914822 2.825268,-2.237654 -2.740513,-2.087064 76.823392,-2.078566 72.18737,0.0077 72.54738,0.01123 74.12717,0.725515 1.9433,0.878635 3.69144,2.506692 4.70522,4.382015 l 0.76284,1.411111 0.0916,71.916481 c 0.0621,48.81653 -0.0259,72.35277 -0.27419,73.27475 -0.55013,2.043 -2.40644,4.22785 -4.53841,5.3416 l -1.88592,0.98521 -73.2493,-0.008 c -68.249092,-0.007 -73.333583,-0.049 -74.484019,-0.60853 z M 180.69692,226.4484 c 0.58208,-0.30918 1.50731,-1.03452 2.05605,-1.61187 1.30426,-1.37224 1.82905,-5.00357 1.4746,-10.20373 l -0.25209,-3.6986 -1.08512,1.31643 c -1.25105,1.51774 -4.12089,2.98085 -5.85668,2.98586 -4.61794,0.0133 -8.15482,-3.91458 -8.15482,-9.05642 0,-0.83791 -0.0988,-1.52347 -0.21963,-1.52347 -0.12079,0 -1.1966,0.91281 -2.39068,2.02847 -4.21577,3.93891 -7.53671,5.01753 -15.46955,5.02441 l -3.0868,0.003 v 2.32682 c 0,4.02626 -1.55698,5.43429 -6.0092,5.43429 h -2.45747 v 1.94027 1.94028 h -1.23472 -1.23473 v -1.95147 -1.95147 l -4.14513,0.0994 -4.14514,0.0994 -0.10663,1.85208 -0.10663,1.85208 h -1.21629 -1.21629 v -10.62495 -10.62496 l -1.05833,-1.20537 c -0.74852,-0.85252 -1.05833,-1.57002 -1.05833,-2.45102 0,-1.71668 0.4944,-2.4883 2.12846,-3.32194 1.54687,-0.78915 1.75219,-1.24555 0.70925,-1.57656 -0.37953,-0.12046 -1.09391,-0.69896 -1.5875,-1.28556 l -0.89744,-1.06655 v -11.11257 -11.11257 l 1.0312,-1.03119 c 1.37359,-1.3736 3.72817,-1.45502 5.21094,-0.1802 l 0.98981,0.851 0.1026,11.18338 c 0.11542,12.58079 0.17444,12.25765 -2.48901,13.62587 l -1.49415,0.76754 1.23473,0.50273 c 3.5547,1.44734 4.10329,4.93196 1.09357,6.94629 -1.31414,0.87952 -1.43762,1.67398 -1.44247,9.28122 l -0.004,6.08541 h 4.23333 4.23333 v -7.60012 c 0,-7.5629 -0.004,-7.60465 -0.85861,-8.52609 -1.15681,-1.24757 -1.37109,-2.32312 -0.75609,-3.79504 0.43474,-1.04048 1.80337,-2.23504 3.2022,-2.79493 0.19403,-0.0777 -0.0345,-0.42583 -0.50774,-0.77373 -2.27454,-1.67189 -2.13809,-0.83458 -2.13809,-13.12048 0,-12.37811 -0.001,-12.37185 2.25106,-13.31285 1.49983,-0.62667 2.87675,-0.2914 3.92642,0.95607 l 0.87808,1.04353 v 11.15565 11.15565 l -1.71849,1.6134 -1.71849,1.6134 1.29971,0.55505 c 1.59697,0.68201 2.65721,2.62741 2.30525,4.22985 l -0.23358,1.06351 6.64738,-0.1099 c 5.70148,-0.0943 6.84147,-0.20625 8.0113,-0.78692 1.75405,-0.87067 3.24703,-2.9459 3.72596,-5.17905 0.52141,-2.43126 0.5254,-89.90795 0.004,-91.78483 -0.48158,-1.73415 -2.25418,-3.727934 -4.03271,-4.535902 -1.18912,-0.540205 -2.37631,-0.643662 -7.46096,-0.650176 l -6.04682,-0.0077 -0.14414,-1.234722 -0.14415,-1.234722 h 1.86944 1.86944 v -3.880556 -3.880555 h 5.92769 5.92769 l 2.92664,1.415292 c 1.98631,0.960554 3.6522,2.112008 5.18481,3.583696 l 2.25817,2.168403 v -2.01025 c 0,-7.214329 8.51046,-10.149288 13.37251,-4.611711 0.62418,0.710904 1.24415,1.183277 1.37771,1.049718 0.13356,-0.133558 0.24284,-2.582798 0.24284,-5.442755 0,-4.883807 -0.0505,-5.273411 -0.8308,-6.408796 -1.36587,-1.987464 -2.36425,-2.520229 -5.30092,-2.828746 -1.47825,-0.1553 -34.35835,-0.287436 -73.0669,-0.293637 -67.7735,-0.01086 -70.431408,0.01291 -71.790275,0.64205 -1.723824,0.798104 -3.121525,2.282039 -3.656166,3.88174 -0.427813,1.28006 -0.492498,8.802893 -0.08816,10.25324 0.23911,0.857686 0.25309,0.851595 1.066618,-0.464721 1.159564,-1.876213 3.094326,-3.055716 5.373444,-3.27585 1.600833,-0.154621 2.184856,-0.02974 3.812966,0.815287 1.057423,0.54883 2.404302,1.604836 2.993063,2.34668 0.931521,1.173724 1.087649,1.688891 1.202776,3.96875 0.07277,1.440969 0.201989,2.619943 0.287162,2.619943 0.08517,0 1.218759,-1.071563 2.51908,-2.38125 2.740908,-2.760651 5.270208,-4.140693 8.537831,-4.658431 1.46605,-0.232287 15.684186,-0.364283 39.422918,-0.365987 l 37.129863,-0.0027 v 6.702777 6.702771 h -1.14665 -1.14665 l 0.12601,-5.468049 0.12601,-5.468055 H 93.439169 c -25.551541,0 -36.91203,0.117761 -38.22589,0.396243 -4.582584,0.971311 -7.580686,3.683713 -9.895329,8.952368 l -0.929901,2.116663 -0.06379,48.57267 -0.06379,48.57267 1.089771,2.32879 c 1.376884,2.94233 4.347688,6.09332 7.021762,7.44765 l 2.030162,1.02821 h 29.809723 29.809723 l 0.0948,-8.01908 c 0.0903,-7.6409 0.0612,-8.05268 -0.61736,-8.73125 -0.6851,-0.6851 -0.71217,-1.14714 -0.71217,-12.15777 0,-11.36707 0.005,-11.45179 0.79375,-12.3476 1.05886,-1.20326 2.59348,-1.44437 4.14024,-0.6505 2.06995,1.06241 2.11064,1.31417 2.11637,13.09376 l 0.005,10.69866 -1.09565,0.99389 c -0.6026,0.54663 -1.39635,1.24879 -1.76388,1.56036 -0.61752,0.52348 -0.66825,1.1422 -0.66825,8.1512 v 7.58472 h 2.46945 c 2.32732,0 2.46913,0.0457 2.46404,0.79375 -0.0121,1.77899 1.67228,1.69969 -33.906059,1.59623 l -33.329867,-0.0969 -2.627252,-1.3034 c -1.444989,-0.71687 -3.579753,-2.11256 -4.743919,-3.10154 l -2.116667,-1.79815 -0.239321,2.09594 c -0.569804,4.99027 -4.098147,8.21062 -8.433334,7.69718 -2.0938,-0.24798 -3.469549,-0.93909 -5.084828,-2.55437 -1.647161,-1.64716 -1.736746,-1.34961 -1.499768,4.98127 0.164231,4.38746 0.292816,5.23499 0.95738,6.31027 0.854165,1.38207 2.370088,2.58357 3.819323,3.02714 0.525551,0.16086 33.499298,0.25377 73.274992,0.20646 65.3863,-0.0778 72.42091,-0.13991 73.37778,-0.64817 z m -30.72941,-4.00538 c 0.11777,-0.30691 0.21413,-1.74571 0.21413,-3.19735 v -2.63933 l 1.14653,0.11055 1.14653,0.11054 0.10192,3.08681 0.10193,3.0868 h -1.46259 c -1.18875,0 -1.42249,-0.10447 -1.24845,-0.55802 z m -95.388649,-2.61698 v -2.82222 h 1.234722 1.234722 v 2.82222 2.82223 h -1.234722 -1.234722 z m 0.881944,-17.94486 c -1.993065,-0.90855 -3.56291,-2.32678 -4.681224,-4.22912 l -0.96322,-1.63851 -0.09336,-46.19551 c -0.104425,-51.672674 -0.277264,-48.06133 2.448415,-51.157864 0.78927,-0.896658 2.09039,-1.980838 2.891378,-2.409288 l 1.456342,-0.779002 30.95625,-0.09567 30.956254,-0.09567 v 3.503589 3.503595 l 3.08681,0.26021 c 1.69774,0.14313 8.37096,0.15626 14.82937,0.0292 9.86198,-0.19403 11.90001,-0.14962 12.72569,0.27736 2.06386,1.06726 1.98129,0.32675 2.00446,17.97741 l 0.0214,16.26412 -0.79558,0.79558 -0.79559,0.79558 h -16.8173 -16.8173 l 0.13252,-7.8493 0.13251,-7.84931 -27.080864,-0.0904 -27.080864,-0.0904 0.09336,-10.66934 0.09336,-10.66933 1.146528,-0.11055 1.146528,-0.11054 v 9.72603 9.72602 l 25.840972,-0.0905 25.84097,-0.0905 0.0931,-11.36896 0.0931,-11.368952 -28.491688,-0.09632 c -15.670425,-0.05298 -29.126682,0.03054 -29.902793,0.185586 -2.193278,0.438169 -3.857025,1.736605 -4.895529,3.820606 l -0.925305,1.85685 v 45.73635 45.73636 l 0.82114,1.55479 c 0.539074,1.02071 1.407922,1.91834 2.529363,2.61313 l 1.708223,1.05833 13.698415,0.10005 13.698415,0.10006 v -2.99892 -2.99892 l -3.96875,-0.0997 -3.96875,-0.0998 -0.09333,-10.64587 -0.09333,-10.64586 -1.166825,-0.38509 c -1.202676,-0.39691 -3.024059,-2.0792 -3.719463,-3.43541 -0.21731,-0.4238 -0.395109,-1.35231 -0.395109,-2.06335 0,-4.93483 6.067412,-7.49153 9.406859,-3.96388 1.537767,1.62444 1.88203,2.44196 1.88203,4.46927 0,1.47689 -0.181295,1.98129 -1.08006,3.00493 -0.594034,0.67656 -1.387784,1.32778 -1.763889,1.44715 -0.655177,0.20795 -0.683829,0.63168 -0.683829,10.113 v 9.89596 l 3.263194,-0.22815 c 1.964621,-0.13736 3.473774,-0.0894 3.792361,0.12048 0.399179,0.263 0.572497,1.32698 0.705556,4.33134 l 0.176389,3.9827 7.976853,0.0947 7.976852,0.0947 0.22523,-1.64323 c 0.12388,-0.90378 0.22523,-2.50989 0.22523,-3.56913 0,-1.70155 -0.12824,-2.04568 -1.10092,-2.95431 l -1.10093,-1.02842 0.14977,-11.01937 c 0.16168,-11.89566 0.20713,-12.18197 2.08829,-13.15475 1.32111,-0.68317 2.75046,-0.42209 3.99286,0.72934 l 0.90982,0.84319 v 11.27437 11.27438 l -1.14652,0.96259 c -1.14382,0.96033 -1.14695,0.97198 -1.32292,4.93402 -0.14428,3.24853 -0.29871,4.10643 -0.84843,4.7132 -0.67039,0.73998 -0.73004,0.74178 -24.341667,0.73405 -22.144858,-0.007 -23.760532,-0.0492 -25.080741,-0.65101 z m 50.320745,-13.27597 c 0.12446,-1.16416 0.24352,-5.01385 0.26458,-8.55486 l 0.0383,-6.43819 h -1.23473 -1.23472 v 8.40787 c 0,4.62433 0.11253,8.5204 0.25007,8.65793 0.13754,0.13754 0.5741,0.20369 0.97014,0.147 0.60284,-0.0863 0.75691,-0.44769 0.94637,-2.21975 z m -0.25515,-17.32385 c 0.30691,-0.11777 0.55802,-0.57552 0.55802,-1.01721 0,-1.10245 -1.62659,-1.44827 -2.15633,-0.45845 -0.68784,1.28525 0.12906,2.03946 1.59831,1.47566 z m -26.578735,-1.8754 c 1.446477,-1.44647 1.425388,-3.1605 -0.0542,-4.4055 -2.282124,-1.92028 -5.008034,-0.66158 -5.008034,2.31248 0,2.89399 3.014782,4.14048 5.062238,2.09302 z m 69.632955,-36.80422 c 0.12692,-1.98878 0.18188,-9.01347 0.12214,-15.61041 l -0.10862,-11.99444 -14.99306,0.0758 -14.99305,0.0758 -0.0919,15.53462 -0.0919,15.53462 h 14.96278 14.96278 z m -20.97676,-13.14097 v -8.29027 h 6.35 6.35 l -0.004,6.96736 c -0.002,3.83205 -0.10228,7.56267 -0.22255,8.29027 l -0.21866,1.32292 h -6.12746 -6.12745 z m 9.87778,-0.17639 v -5.64444 h -3.66411 -3.66411 l -0.24737,1.64957 c -0.13605,0.90726 -0.13504,3.44726 0.002,5.64444 l 0.24961,3.99488 h 3.66187 3.66187 z m -76.185605,74.57048 c -2.53477,-2.13287 -2.818301,-5.20137 -0.684072,-7.40333 2.181637,-2.25088 4.985803,-2.28164 7.257715,-0.0796 2.101139,2.03651 1.911248,5.25929 -0.431062,7.31586 -1.06015,0.93083 -1.521803,1.09105 -3.143575,1.09105 -1.536031,0 -2.111721,-0.17736 -2.999006,-0.92396 z m 4.571715,-2.25104 c 1.053902,-1.0539 0.940734,-2.9388 -0.23182,-3.86113 -2.274869,-1.78941 -5.088981,1.68496 -3.123689,3.85658 0.823528,0.90999 2.447869,0.91219 3.355509,0.005 z m 83.07062,2.32977 c -1.8565,-0.80887 -1.93173,-1.3444 -1.93173,-13.75015 0,-11.35343 0.002,-11.38939 0.79375,-12.13073 1.23283,-1.15486 2.48845,-1.50704 3.94206,-1.10568 2.3964,0.66168 2.4275,0.8261 2.48251,13.12807 0.0553,12.36989 -0.0365,12.98107 -2.07902,13.83448 -1.48857,0.62196 -1.82932,0.62451 -3.20757,0.024 z m 2.73717,-3.18077 c 0.14255,-0.21104 0.26162,-4.16409 0.26459,-8.78454 l 0.005,-8.40082 -1.14653,0.11054 -1.14653,0.11055 -0.0995,8.11389 c -0.0547,4.46263 -0.0157,8.45638 0.0867,8.87499 0.14327,0.58545 0.36979,0.71472 0.98148,0.56011 0.43737,-0.11055 0.91185,-0.37367 1.0544,-0.58472 z m -0.63492,-19.2486 c 1.02314,-0.38899 1.16171,-1.11264 0.36553,-1.90882 -0.96768,-0.96768 -2.19419,0.15939 -1.7379,1.59701 0.24285,0.76517 0.20349,0.75622 1.37237,0.31181 z m -60.654814,21.80681 c -1.935712,-1.06451 -1.923967,-0.98421 -1.932434,-13.21257 l -0.0078,-11.32898 0.890574,-0.89057 c 1.569796,-1.5698 4.192448,-1.45896 5.793073,0.24483 0.810368,0.8626 0.810419,0.86336 0.773711,11.55401 -0.02019,5.88024 -0.03948,10.98138 -0.04287,11.33585 -0.0034,0.35447 -0.470196,1.10854 -1.037354,1.67569 -1.113988,1.11399 -3.048744,1.38511 -4.436859,0.62174 z m 3.022917,-10.08568 c 0.01337,-4.2201 0.08191,-8.10948 0.152323,-8.64305 0.120812,-0.91555 0.04996,-0.97014 -1.259029,-0.97014 h -1.387045 l 0.0039,7.32014 c 0.0021,4.02607 0.102282,7.91545 0.222547,8.64305 0.193473,1.17051 0.335274,1.32292 1.23084,1.32292 h 1.012175 z m -0.02431,-12.79926 c 0,-1.92751 -2.172902,-1.80566 -2.404682,0.13485 -0.102371,0.85706 -0.0073,0.93455 1.146527,0.93455 1.165659,0 1.258155,-0.0786 1.258155,-1.0694 z M 61.61036,181.26121 c -1.972908,-1.0433 -3.350924,-3.47386 -3.007472,-5.30462 0.551282,-2.93859 3.593945,-5.18398 6.329298,-4.67082 2.435158,0.45684 4.463338,2.96982 4.463338,5.53022 0,1.72658 -1.331523,3.75026 -2.998546,4.55725 -1.886624,0.9133 -2.892199,0.88976 -4.786618,-0.11203 z m 4.351613,-2.62197 c 0.826099,-0.91668 1.08497,-2.37641 0.588513,-3.31853 -0.595489,-1.13005 -0.997274,-1.34409 -2.534823,-1.35037 -2.476385,-0.0101 -3.568747,2.36605 -2.002868,4.35674 0.889583,1.13092 3.056932,1.30224 3.949178,0.31216 z M 90.389705,163.8752 c -1.819734,-0.66601 -3.979821,-2.78714 -4.455643,-4.3753 -0.222197,-0.74162 -0.325484,-3.62291 -0.25428,-7.09334 0.117323,-5.71816 0.140971,-5.87476 1.0949,-7.25022 1.791749,-2.5835 5.630603,-3.90489 8.547558,-2.94221 1.668614,0.55069 4.018115,2.64316 4.642495,4.13462 0.567005,1.35439 0.662065,10.87922 0.127745,12.79952 -1.114866,4.00673 -5.643058,6.21274 -9.702775,4.72693 z m 5.026409,-2.60836 c 2.239323,-1.36533 2.551619,-2.37297 2.553095,-8.23775 0.0014,-5.65747 -0.198365,-6.42647 -2.022388,-7.78429 -1.402749,-1.04421 -4.019024,-1.16064 -5.500897,-0.24479 -2.013521,1.24442 -2.353174,2.43382 -2.353174,8.24038 0,4.71283 0.0605,5.18855 0.800782,6.29668 1.52719,2.28607 4.372567,3.04065 6.522582,1.72977 z m 29.829826,1.09298 c -3.33348,-1.55095 -4.60859,-6.17414 -2.47454,-8.97202 1.2738,-1.67003 2.63087,-2.35342 4.67343,-2.35342 3.29638,0 5.77366,2.13961 6.07199,5.24433 0.42674,4.44121 -4.31007,7.92393 -8.27088,6.08111 z m 4.42968,-2.89265 c 1.63374,-1.52206 1.68641,-3.52007 0.13372,-5.07277 -1.68303,-1.68302 -4.96413,-0.83357 -5.53286,1.43242 -0.30525,1.21623 0.36803,3.1854 1.31621,3.84952 1.1078,0.77594 3.13714,0.67197 4.08293,-0.20917 z m -20.69937,1.04587 c -2.14749,-1.06298 -3.24461,-2.81058 -3.24461,-5.16835 0,-2.25623 0.63584,-3.59938 2.30756,-4.87445 3.97891,-3.03487 9.68312,0.23124 9.26249,5.30351 -0.19101,2.30338 -1.28583,3.9293 -3.24487,4.81899 -1.89322,0.8598 -3.22476,0.83891 -5.08057,-0.0797 z m 4.47744,-2.62076 c 2.81987,-2.37276 0.9043,-6.65791 -2.67601,-5.98624 -3.02518,0.56753 -3.48796,5.15826 -0.64487,6.397 1.54397,0.6727 2.11757,0.60176 3.32088,-0.41076 z m 23.32239,0.37405 c 0,-0.99954 0.1344,-1.23473 0.70556,-1.23473 0.60103,0 0.70556,-0.23518 0.70556,-1.5875 0,-1.43922 -0.0789,-1.5875 -0.84421,-1.5875 -0.89703,0 -1.27246,-0.58097 -1.27246,-1.96913 v -0.85309 h 9.87778 9.87777 v 4.23334 4.23333 h -9.525 -9.525 z m 16.63775,-2.8471 c 0.0705,-0.88681 0.0601,-1.68056 -0.0233,-1.76389 -0.23713,-0.23714 -9.62415,-0.17743 -11.44996,0.0728 -1.61157,0.22089 -1.63674,0.2444 -1.63674,1.5287 0,0.7174 0.10584,1.4102 0.23519,1.53955 0.12935,0.12935 3.05024,0.23518 6.49086,0.23518 h 6.25568 z m -91.734646,2.51075 c -1.810314,-0.58298 -3.462963,-2.02667 -4.14516,-3.62107 -0.331314,-0.77433 -0.485719,-2.62899 -0.485719,-5.83428 0,-4.17612 0.08834,-4.87254 0.79375,-6.2577 1.89629,-3.72358 7.511549,-4.25807 9.940896,-0.94622 0.674977,0.92017 0.721637,1.38891 0.612541,6.15342 -0.103365,4.5142 -0.05319,5.10352 0.402308,4.72549 0.286219,-0.23754 0.864326,-1.23138 1.284681,-2.20852 0.678549,-1.57733 0.720582,-1.98712 0.374711,-3.65317 -0.924703,-4.45427 1.582293,-7.52567 5.853622,-7.17146 5.61204,0.46539 7.400811,6.92494 2.851143,10.29595 -1.065013,0.7891 -3.251441,0.96364 -5.548777,0.44294 l -1.250404,-0.2834 -0.617671,1.95947 c -1.569083,4.97771 -5.909795,7.73694 -10.065921,6.39855 z m 3.630546,-2.52362 c 0.480035,-0.18421 0.55802,-1.09515 0.55802,-6.51825 v -6.30413 l -0.88939,-0.58275 c -1.152244,-0.75498 -3.524655,-0.46791 -4.542241,0.54962 -0.652955,0.65292 -0.756741,1.23924 -0.865004,4.88667 -0.153906,5.18516 0.235987,6.8313 1.800711,7.60268 1.176062,0.57977 2.951125,0.74482 3.937904,0.36616 z m 11.801713,-7.93686 c 1.335327,-0.4655 1.809085,-1.23917 1.809085,-2.95435 0,-1.72783 -1.274894,-3.00577 -2.998611,-3.00577 -3.280949,0 -4.162041,4.76805 -1.108781,6.00019 1.009582,0.40742 1.014892,0.40733 2.298307,-0.0401 z m 28.620197,-12.44241 c 0,-0.65484 -0.0992,-1.68672 -0.22049,-2.29305 l -0.22048,-1.10243 h 1.63159 1.6316 v 1.73503 c 0,2.45625 -0.22507,2.85108 -1.62524,2.85108 -1.12435,0 -1.19698,-0.0723 -1.19698,-1.19063 z m -35.051349,-0.48507 c -0.449652,-2.72038 -0.372298,-2.91041 1.184681,-2.91041 h 1.411111 v 2.11666 2.11667 h -1.188564 c -1.099392,0 -1.204969,-0.0992 -1.407228,-1.32292 z m 8.857598,1.07024 c -0.921272,-0.13956 -0.970139,-0.24352 -0.970139,-2.06381 v -1.91684 h 1.625243 c 1.337073,0 1.587276,0.0989 1.411111,0.55802 -0.117772,0.30691 -0.214132,1.25941 -0.214132,2.11666 0,1.03993 -0.146757,1.54106 -0.440972,1.50579 -0.242535,-0.0291 -0.877535,-0.11899 -1.411111,-0.19982 z m 8.007367,-0.0596 c -0.08693,-0.0869 -0.158061,-1.00473 -0.158061,-2.03954 v -1.88148 h 1.5875 1.5875 v 1.90322 1.90322 l -1.429439,0.13632 c -0.786192,0.075 -1.500567,0.0652 -1.5875,-0.0217 z m -25.686664,-1.12445 c -0.123297,-0.61648 -0.224176,-1.58641 -0.224176,-2.1554 0,-0.99891 0.0516,-1.03079 1.499306,-0.92604 l 1.499306,0.10848 v 1.94027 1.94028 l -1.27513,0.10664 c -1.181453,0.0988 -1.2916,0.0243 -1.499306,-1.01423 z m 34.348047,-0.8563 v -1.94027 h 1.633658 1.633659 l -0.218665,1.32291 c -0.120265,0.72761 -0.220412,1.60073 -0.222547,1.94028 -0.003,0.48442 -0.307743,0.61736 -1.414994,0.61736 h -1.411111 z m -29.697922,-1.47996 c -0.07158,-0.15616 -0.07424,-1.59361 -0.0059,-3.19434 l 0.124226,-2.91042 h 1.397982 1.397983 l -0.101929,3.08681 -0.101929,3.0868 -1.290143,0.10754 c -0.709579,0.0591 -1.348704,-0.0202 -1.420279,-0.17639 z m 7.913894,0.0116 c -0.47531,-0.19179 -0.603211,-3.1003 -0.220486,-5.01393 0.192488,-0.96244 0.365587,-1.10243 1.36316,-1.10243 1.091952,0 1.152632,0.0726 1.367014,1.63674 0.123387,0.90021 0.22434,2.32895 0.22434,3.175 0,1.506 -0.02404,1.53768 -1.146528,1.51041 -0.63059,-0.0153 -1.344965,-0.10792 -1.5875,-0.20579 z m 8.316198,-3.11692 0.114114,-2.99944 h 1.208803 1.208802 v 2.99861 2.99861 l -1.322917,8.3e-4 -1.322916,8.2e-4 z m 8.881719,-8.3e-4 v -2.99861 h 1.411111 1.411111 v 1.89618 c 0,1.0429 0.09922,2.39228 0.220486,2.99861 l 0.220486,1.10243 h -1.631597 -1.631597 z m 9.462722,8.3e-4 0.11412,-2.99944 h 1.18288 1.18288 l 0.11412,2.99944 0.11411,2.99943 h -1.41111 -1.41111 z m 8.52894,0.0433 v -2.95451 l 1.09457,-0.21892 c 0.60201,-0.1204 1.23701,-0.13087 1.41111,-0.0233 0.1741,0.1076 0.31655,1.53564 0.31655,3.17342 v 2.97779 h -1.41111 -1.41112 z m -41.546579,-19.49209 0.09519,-7.71589 22.313195,-0.0908 22.313194,-0.0908 v 7.58735 7.58735 l -21.607638,0.005 c -11.884202,0.003 -21.967977,0.10136 -22.408389,0.21936 l -0.80075,0.21455 z m 42.252139,-0.30151 v -5.10922 L 90.826778,104.266 c -10.720035,0.0764 -19.68941,0.15307 -19.931945,0.17033 -0.330284,0.0235 -0.440972,1.27109 -0.440972,4.97028 v 4.93889 h 19.931945 19.931944 z m 27.95764,-8.93604 -1.14653,-0.11055 V 90.518786 80.84789 l 6.26181,-0.09634 6.2618,-0.09633 0.17639,-1.426705 c 0.16263,-1.315379 0.25897,-1.425488 1.23472,-1.411111 l 1.05834,0.01559 0.10303,2.734027 0.10304,2.734028 h -6.35868 -6.35868 l -0.0944,8.55486 -0.0943,8.554861 z m -16.31597,-3.024415 v -2.958571 l 1.06034,-0.155625 c 0.58319,-0.08559 1.13881,-0.07715 1.23472,0.01876 0.24782,0.247823 0.21624,3.639864 -0.0461,4.95158 -0.1856,0.927951 -0.381,1.102431 -1.23473,1.102431 h -1.01423 z M 54.578861,80.50391 v -2.444366 l 1.23314,0.06312 1.233141,0.06312 0.0016,2.38125 0.0016,2.38125 H 55.81362 54.578898 Z m 74.788889,0.01607 c 0,-2.220024 0.0681,-2.446544 0.79375,-2.641016 1.94309,-0.520727 2.02847,-0.418714 2.02847,2.423482 v 2.645833 h -1.41111 -1.41111 z m 15.44562,132.54854 0.0998,-3.75891 6.4266,-0.14281 c 5.66476,-0.12589 6.67105,-0.2389 8.48865,-0.95331 2.88595,-1.13432 6.45118,-4.55184 8.02917,-7.69651 l 1.19767,-2.38677 V 149.0941 100.058 l -0.95566,-2.039489 c -1.22842,-2.621571 -4.32644,-5.862844 -6.79984,-7.114271 -2.24688,-1.136821 -5.83259,-1.649047 -9.44242,-1.348869 l -2.38125,0.198014 v 2.541376 2.541377 l 3.53237,0.215201 c 2.31626,0.141112 4.04696,0.446625 5.02708,0.887405 1.88904,0.849536 3.89716,2.872936 4.92848,4.965966 l 0.79957,1.62273 v 46.21389 46.21388 l -0.91122,1.94243 c -0.99143,2.11337 -2.5888,3.90597 -4.32968,4.85884 -0.96794,0.5298 -2.26525,0.60707 -10.19321,0.60707 h -9.08411 l 8e-5,7.33497 9e-5,7.33498 2.73403,-0.10303 2.73402,-0.10304 z M 40.180087,211.06579 c 1.126769,-1.20796 1.345781,-1.6894 1.344677,-2.95595 -0.0022,-2.55984 -1.842684,-4.6761 -4.258015,-4.89611 -1.830532,-0.16675 -2.492871,0.0812 -3.854555,1.44287 -1.232753,1.23275 -1.411111,1.61398 -1.411111,3.01613 0,3.2662 2.027368,5.2515 5.092198,4.98654 1.491347,-0.12893 1.933694,-0.35728 3.086806,-1.59348 z m 140.062713,-0.0106 c 1.11672,-1.19718 1.33585,-1.68071 1.33474,-2.9453 -0.003,-3.73832 -3.87899,-6.32994 -7.02973,-4.70063 -1.74687,0.90334 -2.84673,2.53412 -2.84673,4.2209 0,3.00158 2.60924,5.3267 5.63131,5.01811 1.28183,-0.13089 1.82261,-0.4269 2.91041,-1.59308 z M 30.237194,204.66888 c 0,-0.77046 2.25453,-2.8288 3.705276,-3.38284 2.019144,-0.77112 6.042696,-0.58891 6.695014,0.30319 0.240468,0.32886 0.618769,0.59793 0.840668,0.59793 0.301075,0 0.380726,-11.16749 0.313887,-44.00903 l -0.08957,-44.00902 -2.734028,0.12459 -2.734028,0.1246 v -1.27113 -1.27112 h 2.795742 2.795743 l 0.115094,-7.14375 c 0.0633,-3.92906 0.09383,-7.191281 0.06784,-7.249378 -0.02599,-0.0581 -0.637458,0.294893 -1.358818,0.784421 -3.073738,2.085897 -7.236312,1.475342 -9.92496,-1.455761 l -1.099637,-1.198798 -0.195735,3.104551 c -0.29359,4.656625 -0.347095,101.538795 -0.05748,104.087185 0.137814,1.21267 0.388816,2.20486 0.557782,2.20486 0.168966,0 0.307211,-0.15323 0.30721,-0.3405 z M 184.40108,149.79966 c 0,-36.57129 -0.11909,-55.209718 -0.35277,-55.209718 -0.19403,0 -0.35278,0.162297 -0.35278,0.36066 0,0.791167 -2.96046,3.514333 -4.43119,4.076009 -1.98877,0.759518 -4.75582,0.532016 -6.16049,-0.506503 -0.56178,-0.415342 -1.14691,-0.755148 -1.30029,-0.755125 -0.15337,2.2e-5 -0.27886,23.495037 -0.27886,52.211137 0,28.7161 0,52.21042 0,52.20959 0,-8.3e-4 0.78096,-0.39772 1.73548,-0.88197 3.40373,-1.72683 7.12598,-0.88617 9.3767,2.11772 0.65438,0.87335 1.31903,1.58792 1.47699,1.58792 0.15797,0 0.28721,-24.84437 0.28721,-55.20972 z m -44.52055,49.8475 c 0.23283,-0.23284 0.42333,-0.86784 0.42333,-1.41111 0,-0.91723 -0.10079,-0.98778 -1.41111,-0.98778 -1.31032,0 -1.41111,0.0705 -1.41111,0.98778 0,1.10445 0.56153,1.83444 1.41111,1.83444 0.31045,0 0.75495,-0.1905 0.98778,-0.42333 z m -10.70494,-0.5853 c 0.44219,-1.39323 -1.0037,-2.5952 -2.45288,-2.0391 -0.63409,0.24332 -0.70138,1.67687 -0.10663,2.27162 0.67278,0.67277 2.31966,0.52315 2.55951,-0.23252 z m -11.80228,-16.99545 v -8.45425 h -1.00346 -1.00346 l -0.22997,5.02708 c -0.40839,8.92713 -0.31931,11.82264 0.37569,12.21159 0.38586,0.21593 0.83731,0.2178 1.23473,0.005 0.57335,-0.30685 0.62647,-1.05208 0.62647,-8.78953 z m 11.61836,7.77353 c 0.10983,-0.48507 0.15517,-5.36664 0.10076,-10.84792 -0.10627,-10.70554 -0.0775,-10.5572 -1.86454,-9.60078 -0.65079,0.34829 -0.68236,0.84334 -0.68236,10.70092 0,5.68466 0.11312,10.44886 0.25138,10.58712 0.57702,0.57702 1.99702,0.034 2.19476,-0.83934 z m 11.23027,-7.67292 0.0945,-8.55486 h -1.06461 -1.0646 v 8.66649 8.66648 l 0.97013,-0.11162 0.97014,-0.11163 z m -23.19428,-11.03763 c 0.56086,-1.04799 0.10323,-2.16883 -0.83118,-2.03571 -0.60334,0.0859 -0.78641,0.38621 -0.87294,1.43167 -0.0935,1.12926 -0.005,1.32292 0.60495,1.32292 0.39294,0 0.88757,-0.3235 1.09917,-0.71888 z m 22.71818,0.15197 c 0.85343,-0.32749 0.70314,-1.7823 -0.20876,-2.02076 -1.05456,-0.27578 -1.34988,-0.0138 -1.34988,1.19738 0,1.04859 0.40887,1.26459 1.55864,0.82338 z M 39.770532,95.816675 c 2.185747,-2.094077 2.156088,-5.000492 -0.07327,-7.180101 -1.508745,-1.475077 -2.969466,-1.706227 -5.027982,-0.795648 -1.343987,0.594509 -1.76849,1.0207 -2.369132,2.378553 -0.64447,1.456929 -0.680565,1.826791 -0.302592,3.100558 0.507692,1.710917 0.881747,2.217556 2.29658,3.110603 1.552469,0.979922 4.112281,0.692938 5.476394,-0.613965 z m 139.374908,0.441929 c 2.66946,-1.783312 3.10554,-4.987369 0.97761,-7.182836 -3.90998,-4.034073 -10.16778,-0.07884 -7.75639,4.902411 1.35428,2.79757 4.44717,3.83804 6.77878,2.280425 z"
           id="path1" /></g></g></g></svg>
